<?xml version="1.0" standalone="no"?>
<!DOCTYPE svg PUBLIC "-//W3C//DTD SVG 1.1//EN" "http://www.w3.org/Graphics/SVG/1.1/DTD/svg11.dtd" >
<svg xmlns="http://www.w3.org/2000/svg" xmlns:xlink="http://www.w3.org/1999/xlink" version="1.1">
<metadata></metadata>
<defs>
<font id="muliextralight" horiz-adv-x="1177" >
<font-face units-per-em="2048" ascent="1638" descent="-410" />
<missing-glyph horiz-adv-x="602" />
<glyph horiz-adv-x="0" />
<glyph unicode="&#xd;" horiz-adv-x="0" />
<glyph unicode=" "  horiz-adv-x="602" />
<glyph unicode="&#x09;" horiz-adv-x="602" />
<glyph unicode="&#xa0;" horiz-adv-x="602" />
<glyph unicode="!" horiz-adv-x="442" d="M143 0v160h157v-160h-157zM164 1456h120l-32 -1093h-56z" />
<glyph unicode="&#x22;" horiz-adv-x="911" d="M254 1456h110l-16 -527h-64zM555 1456h110l-16 -527h-64z" />
<glyph unicode="#" horiz-adv-x="1397" d="M131 545l5 58h270l62 335h-256l8 59h257l75 393h80l-71 -393h361l75 393h73l-75 -393h260l-12 -59h-257l-64 -335h256l-12 -58h-252l-84 -436h-73l79 436h-363l-87 -436h-73l81 436h-263zM482 603h365l64 335h-363z" />
<glyph unicode="$" horiz-adv-x="1143" d="M128 1113q0 -112 41 -187.5t113.5 -119t190.5 -74.5l85 -22v-644q-58 2 -111.5 14.5t-88.5 26.5t-71 37t-51 35t-37 32q-4 3 -6 5l-51 -74q2 -2 19.5 -17t33 -26t43 -29t58.5 -31.5t70.5 -27.5t88.5 -22t103 -10v-172h75v174q187 12 294.5 115t112.5 266q3 89 -11.5 149 t-57.5 112.5t-121.5 90.5t-204.5 70l-12 3v606q62 -4 114.5 -18.5t88 -34t55.5 -34t34 -29.5l47 74q-2 2 -11.5 10t-19 15.5t-26.5 19t-35.5 21.5t-45 20.5t-55.5 18.5t-67 14.5t-79 8.5v143h-75v-141q-202 -5 -316 -102.5t-114 -265.5zM236 1113q0 86 38 148t110 96t174 38 v-589l-61 16q-153 40 -207 100.5t-54 190.5zM633 67v623q96 -26 154.5 -53t94.5 -66t48 -87.5t9 -122.5q-2 -60 -24 -111.5t-61 -90t-95.5 -62.5t-125.5 -30z" />
<glyph unicode="%" horiz-adv-x="2123" d="M172 991q0 228 85 346.5t248 118.5q157 0 238.5 -118.5t81.5 -346.5q0 -222 -81.5 -337.5t-238.5 -115.5q-163 0 -248 115.5t-85 337.5zM264 992q0 -185 61.5 -281.5t179.5 -96.5q112 0 170 96.5t58 281.5q0 190 -58 289t-170 99q-118 0 -179.5 -98.5t-61.5 -289.5z M755 0l539 1456h82l-541 -1456h-80zM1298 453q0 228 85 346.5t248 118.5q157 0 238.5 -118.5t81.5 -346.5q0 -222 -81.5 -337.5t-238.5 -115.5q-163 0 -248 115.5t-85 337.5zM1390 454q0 -185 61.5 -281.5t179.5 -96.5q112 0 170 96.5t58 281.5q0 190 -58 289t-170 99 q-118 0 -179.5 -98.5t-61.5 -289.5z" />
<glyph unicode="&#x26;" horiz-adv-x="1470" d="M154 396q0 42 7 80t24 71.5t32.5 59.5t46.5 55t50.5 46.5t60.5 44.5t60.5 39.5t65.5 39.5q-82 91 -129 181t-47 196q0 130 85 202.5t216 72.5q80 0 148.5 -28t115.5 -91t47 -151q0 -115 -89.5 -215.5t-222.5 -173.5l440 -478q69 93 118 237.5t49 265.5l92 -1 q-12 -155 -61.5 -307t-131.5 -264q129 -165 291 -208q12 -3 24 -5l-73 -64q-72 11 -270 175l-28 22l1 -1q-86 -105 -192 -160t-254 -55q-211 0 -343.5 110.5t-132.5 303.5zM267 399q0 -143 97 -233.5t259 -90.5q135 0 226 46.5t176 142.5l-472 506q-54 -29 -91 -52.5 t-77 -57.5t-63.5 -69.5t-39 -84.5t-15.5 -107zM412 1206q0 -182 159 -336q70 40 128 87.5t102.5 114.5t44.5 132q0 96 -65.5 146t-151.5 50q-93 0 -155 -51t-62 -143z" />
<glyph unicode="'" horiz-adv-x="544" d="M207 1456h110l-16 -527h-64z" />
<glyph unicode="(" horiz-adv-x="564" d="M164 660q0 241 64 446t194 410h94q-126 -204 -190 -410.5t-64 -438.5q0 -220 67 -439t189 -404h-98q-256 396 -256 836z" />
<glyph unicode=")" horiz-adv-x="564" d="M45 1496h98q257 -395 257 -836q0 -241 -64 -446t-194 -410h-95q126 203 190 409.5t64 439.5q0 220 -67 439t-189 404z" />
<glyph unicode="*" horiz-adv-x="1190" d="M303 1165l14 95l268 -114l-30 314h84l8 -314l220 114l50 -95l-241 -66l183 -265l-83 -35l-154 284l-144 -269l-79 38l164 247z" />
<glyph unicode="+" horiz-adv-x="1116" d="M121 581v91h390v409h89v-409h395v-91h-392v-444h-91v444h-391z" />
<glyph unicode="," horiz-adv-x="410" d="M98 -256l103 420h118l-151 -420h-70z" />
<glyph unicode="-" horiz-adv-x="597" d="M67 527v73h459v-73h-459z" />
<glyph unicode="." horiz-adv-x="550" d="M204 0v167h162v-167h-162z" />
<glyph unicode="/" horiz-adv-x="732" d="M143 0l427 1456h82l-429 -1456h-80z" />
<glyph unicode="0" d="M124 722q0 373 120.5 567t353.5 194q223 0 339 -193.5t116 -567.5q0 -365 -116 -555t-339 -190q-232 0 -353 190t-121 555zM234 722q0 -323 92.5 -491t271.5 -168q169 0 257 168t88 491q0 332 -88 503.5t-257 171.5q-179 0 -271.5 -172t-92.5 -503z" />
<glyph unicode="1" d="M256 1176v96q76 28 187 84t177 100h49v-1369h270v-87h-671v87h293v1233q-47 -29 -97 -53t-118 -52.5t-90 -38.5z" />
<glyph unicode="2" horiz-adv-x="1212" d="M185 1373q186 110 400 110q98 0 176 -23.5t128 -61.5t83 -90.5t46.5 -108t13.5 -115.5q0 -68 -16.5 -128.5t-55.5 -123.5t-78.5 -112.5t-109.5 -129.5l-444 -504h699v-86h-809v90l491 559q127 145 174.5 229.5t47.5 189.5q0 70 -17.5 126t-56 102.5t-107.5 72t-164 25.5 q-188 0 -363 -100z" />
<glyph unicode="3" d="M112 1283q58 92 178.5 146t263.5 54q200 0 319 -99t119 -266q0 -118 -75.5 -219t-206.5 -127q146 -23 234 -130t88 -250q0 -190 -134 -302.5t-360 -112.5q-95 0 -188 21.5t-155 57.5l21 81q145 -74 322 -74q175 0 279.5 89.5t104.5 239.5q0 152 -91.5 240t-271.5 92 l-107 2l-2 94h109q167 0 251 79t84 219q0 127 -92.5 203t-247.5 76q-114 0 -219 -44t-166 -129z" />
<glyph unicode="4" d="M101 391v84l599 981h181v-971h202v-94h-206v-391h-110v391h-666zM221 485h544v902l-156 -261z" />
<glyph unicode="5" d="M152 109l36 78q185 -127 379 -127q107 0 191 41t136 130.5t52 217.5q0 163 -97.5 260.5t-261.5 97.5q-98 0 -181 -41t-126 -110l-82 17l20 783h733v-89h-636l-28 -596q48 56 130 89t170 33q214 0 341.5 -121.5t127.5 -324.5q0 -113 -41 -204t-110.5 -148t-158.5 -87 t-189 -30q-225 0 -405 131z" />
<glyph unicode="6" d="M124 688q0 167 32 308.5t95.5 251.5t169 172.5t242.5 62.5q173 0 307 -100l-43 -76q-44 36 -114.5 63t-149.5 27q-76 0 -139 -24t-106 -62.5t-76 -93.5t-52 -109.5t-31.5 -118.5t-17.5 -112.5t-6 -99.5q-1 -27 -1 -68q15 31 48.5 64.5t83 65.5t121 52.5t148.5 20.5 q187 0 311 -126t124 -334q0 -206 -124 -340.5t-330 -134.5q-103 0 -185.5 34t-139.5 95.5t-94.5 150.5t-55 196t-17.5 235zM247 552q0 -75 10.5 -142.5t37 -132t67.5 -111t106 -75t148 -28.5q163 0 253.5 109t90.5 280q0 79 -19 145.5t-57 118.5t-101.5 81t-147.5 29 q-90 0 -166.5 -29t-123 -72.5t-72.5 -89t-26 -83.5z" />
<glyph unicode="7" d="M190 1356v100h864v-80l-541 -1376h-121l546 1356h-748z" />
<glyph unicode="8" horiz-adv-x="1178" d="M129 361q0 153 88 256.5t258 144.5q-150 34 -229.5 129t-79.5 234q0 163 123 260.5t302 97.5q108 0 203.5 -40.5t157.5 -122.5t62 -188q0 -137 -80.5 -232.5t-230.5 -134.5q178 -43 262 -142.5t84 -255.5q0 -120 -65 -210.5t-169 -135t-229 -44.5q-85 0 -166 25.5 t-146.5 72.5t-105 121.5t-39.5 164.5zM234 376q0 -145 99 -225t255 -80q157 0 255.5 81.5t98.5 221.5q0 141 -91.5 216t-266.5 107q-350 -70 -350 -321zM266 1124q0 -128 81.5 -201.5t241.5 -100.5q327 51 327 294q0 133 -94.5 208.5t-231.5 75.5q-131 0 -227.5 -75.5 t-96.5 -200.5z" />
<glyph unicode="9" horiz-adv-x="1182" d="M124 1008q0 206 124 340.5t330 134.5q103 0 185.5 -34t139.5 -95.5t94.5 -150.5t55 -196t17.5 -235q0 -167 -32 -308.5t-95.5 -251.5t-169 -172.5t-242.5 -62.5q-173 0 -307 100l43 76q44 -36 114.5 -63t149.5 -27q76 0 139 24t106 62.5t76 93.5t52 109.5t31.5 118.5 t17.5 112.5t6 99.5q1 27 1 68q-15 -31 -48.5 -64.5t-83 -65.5t-121 -52.5t-148.5 -20.5q-187 0 -311 126t-124 334zM234 1008q0 -79 19 -145.5t57 -118.5t101.5 -81t147.5 -29q90 0 166.5 29t123 72.5t72.5 89t26 83.5q0 75 -10.5 142.5t-37 132t-67.5 111t-106 75 t-148 28.5q-163 0 -253.5 -109t-90.5 -280z" />
<glyph unicode=":" horiz-adv-x="476" d="M161 7v168h154v-168h-154zM161 857v167h154v-167h-154z" />
<glyph unicode=";" horiz-adv-x="550" d="M126 -256l103 420h119l-151 -420h-71zM142 833v168h191v-168h-191z" />
<glyph unicode="&#x3c;" horiz-adv-x="1044" d="M46 565v71l784 382v-102l-680 -325l674 -382v-101z" />
<glyph unicode="=" horiz-adv-x="1040" d="M110 705v93h820v-93h-820zM112 333v92h818v-92h-818z" />
<glyph unicode="&#x3e;" horiz-adv-x="1042" d="M214 105v99l673 338l-668 371v99l777 -439v-65z" />
<glyph unicode="?" horiz-adv-x="1113" d="M213 1303v105q135 65 290 65q193 0 295.5 -84t102.5 -249q0 -60 -24 -119.5t-62 -108t-83.5 -95.5t-91.5 -90t-84 -83t-62 -82.5t-24 -81.5v-142h-80v148q0 54 30.5 109t75.5 100t98.5 98t98.5 101.5t75.5 111t30.5 125.5q0 127 -87.5 190t-226.5 63q-141 0 -272 -81z M353 -20v167h163v-167h-163z" />
<glyph unicode="@" horiz-adv-x="1707" d="M110 681q0 234 95 413t272 278t410 99q323 0 510 -179.5t187 -485.5q0 -123 -31.5 -224.5t-85 -167.5t-123 -102t-146.5 -36q-75 0 -116 51t-20 143q-36 -86 -115 -138t-180 -52q-130 0 -208 89.5t-78 239.5q0 249 122 400t323 139q99 -6 160 -66.5t66 -158.5l46 185h73 l-136 -552q-25 -101 -25 -148q0 -36 25.5 -57t68.5 -21q138 0 222.5 131.5t84.5 344.5q0 269 -171 434t-453 165q-206 0 -363 -93t-241 -257t-84 -374q0 -316 189.5 -498.5t510.5 -182.5q173 0 316.5 56t209.5 146l57 -36q-60 -107 -218 -169.5t-365 -62.5q-363 0 -576 199 t-213 548zM561 614q0 -123 57 -196t153 -73q140 0 232 120.5t106 323.5q9 131 -41.5 207.5t-146.5 83.5q-162 12 -261 -119t-99 -347z" />
<glyph unicode="A" horiz-adv-x="1329" d="M68 0l530 1456h134l529 -1456h-112l-143 399h-674l-143 -399h-121zM359 473h619l-155 447l-156 446l-154 -446z" />
<glyph unicode="B" horiz-adv-x="1352" d="M224 0v1456h413q513 0 513 -357q0 -312 -283 -342q167 -14 261.5 -109.5t94.5 -262.5q0 -189 -127 -287t-372 -98h-500zM332 86h392q191 0 290 76t99 223q0 164 -99.5 243.5t-330.5 79.5h-351v-622zM334 794h349q193 0 276 75t83 230q0 271 -405 271h-303v-576z" />
<glyph unicode="C" horiz-adv-x="1389" d="M110 701q0 356 194 568t520 212q256 0 419 -139l-44 -68q-155 121 -375 121q-276 0 -440 -188.5t-164 -505.5q0 -290 160.5 -463t429.5 -173q239 0 428 125l35 -75q-210 -137 -463 -137q-320 0 -510 196.5t-190 526.5z" />
<glyph unicode="D" horiz-adv-x="1523" d="M224 0v1456h374q387 0 588 -189.5t201 -554.5q0 -350 -195.5 -531t-571.5 -181h-396zM332 86h288q323 0 490 159.5t167 466.5q0 323 -173 490.5t-506 167.5h-266v-1284z" />
<glyph unicode="E" horiz-adv-x="1219" d="M224 0v1456h810v-86h-702v-583h663v-86h-665v-615h734v-86h-840z" />
<glyph unicode="F" horiz-adv-x="1090" d="M224 0v1456h777v-86h-669v-591h612v-86h-612v-693h-108z" />
<glyph unicode="G" horiz-adv-x="1513" d="M110 706q0 354 198.5 564.5t532.5 210.5h12h10q245 0 446 -147l-46 -77q-208 138 -422 138q-283 0 -452 -187.5t-169 -501.5q0 -293 165.5 -467t449.5 -174q112 0 225 17.5t189 52.5v510h-409v86h505v-651q-208 -101 -512 -101q-334 0 -528.5 197t-194.5 530z" />
<glyph unicode="H" horiz-adv-x="1558" d="M224 0v1456h112v-670h894v670h104v-1456h-108v700h-894v-700h-108z" />
<glyph unicode="I" horiz-adv-x="592" d="M242 0v1456h108v-1456h-108z" />
<glyph unicode="J" horiz-adv-x="667" d="M0 -310l2 87q53 -3 95 -3q75 0 117.5 13t71.5 53t39 108t10 184v1324h108v-1324q0 -95 -9 -165.5t-29.5 -119.5t-47.5 -80t-69 -48.5t-87 -24t-108 -6.5q-27 0 -93 2z" />
<glyph unicode="K" horiz-adv-x="1232" d="M224 0v1456h108v-682l714 682h132l-729 -698l774 -758h-126l-767 745v-745h-106z" />
<glyph unicode="L" horiz-adv-x="1045" d="M224 0v1456h108v-1370h681v-86h-789z" />
<glyph unicode="M" horiz-adv-x="1849" d="M224 0v1456h138l473 -1097l89 -218l92 218l491 1097h118v-1456h-104v1279l-54 -145l-513 -1134h-63l-495 1134l-68 186v-1320h-104z" />
<glyph unicode="N" horiz-adv-x="1571" d="M224 0v1456h106l784 -1121l127 -193v1314h106v-1456h-105l-803 1137l-109 166v-1303h-106z" />
<glyph unicode="O" horiz-adv-x="1572" d="M110 723q0 346 183.5 552t494.5 206q306 0 490 -206.5t184 -551.5q0 -339 -183.5 -541.5t-490.5 -202.5q-310 0 -494 202t-184 542zM220 723q0 -300 155 -479t413 -179t411 179t153 479q0 307 -153.5 489.5t-410.5 182.5q-259 0 -413.5 -182.5t-154.5 -489.5z" />
<glyph unicode="P" horiz-adv-x="1219" d="M224 0v1456h431q258 0 375 -89.5t117 -287.5q0 -199 -117 -288.5t-375 -89.5h-323v-701h-108zM332 787h323q215 0 302 68t87 224q0 160 -92 229q-84 63 -260 63q-18 0 -37 -1h-323v-583z" />
<glyph unicode="Q" horiz-adv-x="1572" d="M110 723q0 -340 184 -542t494 -202q48 0 94 5q26 -53 67 -114t75.5 -105t73 -88.5t52 -59t21.5 -22.5l62 59q-7 7 -18.5 19t-46 50.5t-65.5 77t-69.5 93.5t-67.5 105q231 56 363.5 247t132.5 477q0 345 -184 551.5t-490 206.5q-311 0 -494.5 -206t-183.5 -552zM220 723 q0 307 154.5 489.5t413.5 182.5q257 0 410.5 -182.5t153.5 -489.5q0 -300 -153 -479t-411 -179t-413 179t-155 479z" />
<glyph unicode="R" horiz-adv-x="1373" d="M224 0v1456h435q253 0 367.5 -90t114.5 -289q0 -154 -76 -252.5t-222 -110.5q32 -5 56 -11.5t45 -17.5t35.5 -20.5t29 -29.5t24 -35t22.5 -46.5t21.5 -54.5t24.5 -68l151 -431h-101l-144 408q-21 60 -35 93.5t-32.5 68t-36.5 50.5t-45.5 30t-60 18t-79.5 4h-386v-672 h-108zM335 758h354q179 0 264 80t85 239q0 161 -91 231q-82 63 -249 63q-19 0 -39 -1h-324v-612z" />
<glyph unicode="S" horiz-adv-x="1130" d="M128 1113q0 172 119.5 270t331.5 98q55 0 104.5 -6t87 -17t67.5 -22t54 -26t37.5 -24.5t27.5 -21.5t15 -13l-47 -74q-16 16 -39 32.5t-64.5 38t-105 34.5t-137.5 13q-163 0 -253 -74t-90 -208q0 -130 54 -190.5t207 -100.5l148 -38q126 -32 204.5 -70t121.5 -90.5 t57 -112.5q12 -50 13 -119q0 -14 -1 -30q-5 -174 -126 -278.5t-328 -104.5q-58 0 -110.5 7t-94.5 20.5t-75.5 27t-63 33t-45.5 30.5t-34.5 27.5t-20.5 17.5l51 74q27 -24 37.5 -33t53 -36.5t79 -41.5t97.5 -27t126 -13q158 0 253 81.5t100 214.5q1 15 1 28q0 56 -10 96 q-12 49 -49.5 88.5t-98 66.5t-160.5 53l-149 39q-118 31 -190.5 74.5t-113.5 119t-41 187.5z" />
<glyph unicode="T" horiz-adv-x="1097" d="M8 1370v86h1080v-86h-486v-1370h-108v1370h-486z" />
<glyph unicode="U" horiz-adv-x="1480" d="M176 514v942h108v-950q0 -217 114 -329t334 -112t334 112t114 329v950h108v-942q-2 -263 -143.5 -399t-412.5 -136q-273 0 -414.5 136t-141.5 399z" />
<glyph unicode="V" horiz-adv-x="1381" d="M94 1456h111l366 -1021l122 -345l116 343l366 1023h112l-529 -1456h-130z" />
<glyph unicode="W" horiz-adv-x="2037" d="M138 1456h114l311 -1242l18 -111l27 111l364 1242h109l364 -1242l25 -97l25 97l294 1242h110l-362 -1456h-129l-379 1320l-387 -1320h-128z" />
<glyph unicode="X" horiz-adv-x="1317" d="M120 0l490 740l-478 716h119l417 -642l398 642h114l-451 -712l468 -744h-110l-413 664l-441 -664h-113z" />
<glyph unicode="Y" horiz-adv-x="1235" d="M80 1456h109l427 -773l434 773h105l-487 -862v-594h-108v591z" />
<glyph unicode="Z" horiz-adv-x="1182" d="M134 0v61l806 1309h-770v86h900v-57l-809 -1313h805v-86h-932z" />
<glyph unicode="[" horiz-adv-x="715" d="M212 -322v1745h396v-74h-299v-1597h300v-74h-397z" />
<glyph unicode="\" horiz-adv-x="791" d="M138 1456h96l436 -1390h-96z" />
<glyph unicode="]" horiz-adv-x="715" d="M172 1349v74h402v-1745h-400v74h304v1597h-306z" />
<glyph unicode="^" horiz-adv-x="1721" d="M388 604l439 852h57l449 -852h-83l-395 758l-386 -758h-81z" />
<glyph unicode="_" horiz-adv-x="847" d="M7 -206h833v-80h-833v80z" />
<glyph unicode="`" horiz-adv-x="581" d="M127 1456h135l237 -282h-54z" />
<glyph unicode="a" horiz-adv-x="1253" d="M96 524q0 241 132 384.5t353 143.5q128 0 225 -62.5t141 -164.5v201h98v-1026h-98v215q-48 -108 -142.5 -172t-227.5 -64q-220 0 -350.5 148t-130.5 397zM196 524q0 -211 104.5 -337t280.5 -126q173 0 269.5 124.5t96.5 338.5q0 203 -99.5 324.5t-266.5 121.5 q-175 0 -280 -121.5t-105 -324.5z" />
<glyph unicode="b" horiz-adv-x="1259" d="M189 0l1 18q0 18 1 47t2.5 63t2 72t0.5 68v1248h98v-717q47 115 156.5 184t245.5 69q212 0 338 -144.5t126 -387.5q0 -247 -126 -394t-338 -147q-141 0 -250.5 70.5t-152.5 189.5l-5 -239h-99zM294 520q0 -209 109 -334t293 -125q173 0 269.5 123.5t96.5 335.5 q0 208 -96.5 329t-269.5 121q-184 0 -293 -122t-109 -328z" />
<glyph unicode="c" horiz-adv-x="1022" d="M96 502q0 251 143 400.5t383 149.5q89 0 174 -27t137 -73l-33 -72q-103 90 -278 90q-194 0 -310 -127t-116 -341q0 -201 113 -321t303 -120q183 0 318 106l34 -67q-56 -55 -151.5 -88t-200.5 -33q-235 0 -375.5 142t-140.5 381z" />
<glyph unicode="d" horiz-adv-x="1256" d="M96 520q0 243 126 387.5t338 144.5q136 0 245.5 -69t156.5 -184v717h98v-1248q0 -30 0.5 -68t2 -72t2.5 -63t1 -47l1 -18h-99l-5 239q-43 -119 -152.5 -189.5t-250.5 -70.5q-212 0 -338 147t-126 394zM194 520q0 -212 96.5 -335.5t269.5 -123.5q184 0 293 125t109 334 q0 206 -109 328t-293 122q-173 0 -269.5 -121t-96.5 -329z" />
<glyph unicode="e" horiz-adv-x="1133" d="M96 508q0 248 135 396t361 148q207 0 330 -132.5t123 -354.5v-58h-849v-7q0 -198 112 -318q114 -122 308 -121q95 0 186 31t160 85l36 -69q-71 -59 -174.5 -94t-207.5 -35q-237 0 -378.5 144t-141.5 385zM202 578h761q-10 179 -110.5 285.5t-260.5 106.5 q-164 0 -270 -106.5t-120 -285.5z" />
<glyph unicode="f" horiz-adv-x="604" d="M68 961v65h174v158q0 89 13 144t49.5 96t103 58t173.5 17h35v-83q-67 0 -113.5 -4t-77.5 -16.5t-47.5 -25t-25 -40.5t-10.5 -52t-2 -69v-183h263v-65h-263v-961h-98v961h-174z" />
<glyph unicode="g" horiz-adv-x="1268" d="M96 514q0 245 131.5 391.5t352.5 146.5q132 0 235.5 -65t150.5 -170l10 209h95l-7 -189v-723q0 -143 -38.5 -251.5t-108.5 -174.5t-160.5 -98.5t-200.5 -32.5q-188 0 -349 66l12 86q170 -68 337 -68q190 0 300 113.5t110 359.5v122q-46 -121 -154 -186.5t-248 -65.5 q-214 0 -341 144t-127 386zM196 514q0 -205 100 -326.5t268 -121.5q184 0 293 121.5t109 326.5q0 208 -105 332t-281 124t-280 -124t-104 -332z" />
<glyph unicode="h" horiz-adv-x="1255" d="M196 0v1516h98v-689q57 102 160.5 163.5t245.5 61.5q52 0 99 -9t97 -34.5t86 -65t59.5 -107t23.5 -154.5v-682h-98v659q0 157 -61 234t-206 77q-161 0 -283.5 -105t-122.5 -237v-628h-98z" />
<glyph unicode="i" horiz-adv-x="491" d="M191 0v1026h98v-1026h-98zM191 1346v110h98v-110h-98z" />
<glyph unicode="j" horiz-adv-x="503" d="M-67 -331q38 -5 69 -5q64 0 106.5 20.5t67.5 65t35 106.5t10 154v1016h98v-1003q0 -76 -7.5 -136.5t-28.5 -118.5t-54.5 -96.5t-88 -62t-127.5 -23.5q-37 0 -78 6zM207 1238v126h122v-126h-122z" />
<glyph unicode="k" horiz-adv-x="1045" d="M196 0v1516h98v-967l548 477h129l-558 -483l600 -543h-128l-591 535v-535h-98z" />
<glyph unicode="l" horiz-adv-x="509" d="M205 0v1516h98v-1516h-98z" />
<glyph unicode="m" horiz-adv-x="1946" d="M198 1026h89l10 -206q52 114 150 173t234 59q269 0 330 -263q52 131 158.5 197t238.5 66q171 0 259.5 -109.5t88.5 -320.5v-622h-98v622q0 171 -63.5 259.5t-186.5 88.5q-158 0 -253.5 -88.5t-125.5 -259.5v-622h-98v622q0 171 -63.5 259.5t-186.5 88.5 q-147 0 -243.5 -74.5t-135.5 -217.5v-678h-98v880z" />
<glyph unicode="n" horiz-adv-x="1257" d="M196 1026h89l10 -206q52 112 159 172t245 60q368 0 368 -430v-622h-98v622q0 348 -270 348q-149 0 -255 -75.5t-144 -216.5v-678h-98v880z" />
<glyph unicode="o" horiz-adv-x="1230" d="M96 510q0 248 141 395t378 147t378 -147t141 -395q0 -242 -141 -386.5t-378 -144.5t-378 144.5t-141 386.5zM196 510q0 -207 111 -328t308 -121t308 121t111 328q0 212 -111 336t-308 124t-308 -124t-111 -336z" />
<glyph unicode="p" horiz-adv-x="1263" d="M196 1008v18h99l5 -247q43 120 153 194t250 74q212 0 338 -147t126 -394q0 -243 -126 -387.5t-338 -144.5q-139 0 -247.5 62.5t-154.5 175.5v-702h-98v1248q0 30 -0.5 68t-1.5 72t-2.5 63t-2.5 47zM301 491q0 -204 108.5 -319.5t293.5 -115.5q173 0 269.5 121t96.5 329 q0 212 -96.5 335.5t-269.5 123.5q-182 0 -292 -131.5t-110 -342.5z" />
<glyph unicode="q" horiz-adv-x="1256" d="M92 490q0 138 36 246t100.5 176.5t150.5 104t190 35.5q143 0 239 -60t128 -149v183h109q2 26 2 -1l-6 -163v10v-1321h-103v686q-6 -41 -31.5 -83.5t-70.5 -83t-119 -66t-163 -25.5q-92 0 -173 30.5t-146.5 90t-104 160t-38.5 230.5zM203 500q0 -209 100 -321.5 t255 -112.5q168 0 268.5 125t100.5 366q0 190 -98.5 299t-249.5 109q-166 0 -271 -122.5t-105 -342.5z" />
<glyph unicode="r" horiz-adv-x="769" d="M196 1026h100l10 -191q32 112 112.5 162.5t189.5 50.5q50 0 101 -9l-5 -90q-48 9 -94 9q-141 0 -224 -96t-83 -303v-559h-98v776q0 57 -2.5 119.5t-4.5 96.5z" />
<glyph unicode="s" horiz-adv-x="935" d="M117 783q0 136 100 202.5t275 66.5q183 0 306 -75l-32 -73q-121 66 -274 66q-276 0 -278 -179q0 -79 35.5 -114.5t140.5 -67.5l201 -63q130 -41 188.5 -100t58.5 -166q0 -77 -28 -135.5t-77.5 -94.5t-114 -53.5t-141.5 -17.5q-194 0 -355 117l37 76q1 -1 15.5 -10.5 t24 -15.5t30 -17t37.5 -18.5t42.5 -17t49.5 -15t54.5 -9.5t60.5 -4q271 0 271 197q0 82 -41.5 124t-143.5 73l-206 63q-121 37 -178.5 94.5t-57.5 166.5z" />
<glyph unicode="t" horiz-adv-x="687" d="M56 961v65h202v294l98 29v-323h233v-65h-233v-638v-56t2 -46t5 -39t9 -30t14 -25t21.5 -17t30 -13.5t40 -7.5t51 -5t63.5 -1v-84q-8 0 -23.5 0.5t-22.5 0.5q-48 2 -86.5 8.5t-67 16t-50.5 22.5t-36 29t-24 35t-14.5 40t-7 44.5t-2.5 49v52.5v29v635h-202z" />
<glyph unicode="u" horiz-adv-x="1285" d="M198 412v614h98v-618q0 -173 72.5 -262.5t215.5 -89.5q73 0 138 22t109.5 56t77 75t48 78.5t15.5 67.5v671h98v-801q0 -137 5 -225h-89l-9 191q-137 -217 -393 -217q-191 0 -288.5 111t-97.5 327z" />
<glyph unicode="v" horiz-adv-x="949" d="M1 1026h101l329 -816l48 -132l48 132l329 816h101l-423 -1026h-110z" />
<glyph unicode="w" horiz-adv-x="1553" d="M44 1026h106l239 -844l22 -80l27 80l289 844h128l283 -844l25 -80l21 80l215 844h109l-278 -1026h-128l-262 800l-45 139l-46 -139l-279 -800h-128z" />
<glyph unicode="x" horiz-adv-x="1114" d="M58 0l444 526l-411 504l111 -4l353 -444l364 444h115l-420 -515l438 -511h-107l-386 460l-389 -460h-112z" />
<glyph unicode="y" horiz-adv-x="983" d="M62 1026h106l342 -929l353 929h96l-412 -1078q-116 -315 -390 -365l-33 72q75 19 131.5 50.5t91.5 71.5t54 71.5t36 72.5l24 58z" />
<glyph unicode="z" horiz-adv-x="934" d="M90 0v59l640 885h-615v82h740v-57l-635 -887h623v-82h-753z" />
<glyph unicode="{" horiz-adv-x="908" d="M102 535v41q83 10 136 32t80.5 60t37.5 84t10 118v289q0 34 1.5 54t9 49t21.5 46t42 37t67.5 30.5t99.5 18t137 7.5v-77q-42 1 -76.5 -0.5t-61 -5.5t-47.5 -8t-36 -12.5t-25.5 -15t-17.5 -19.5t-10.5 -21t-5 -25.5t-2 -27t-0.5 -30.5v-289q0 -132 -43.5 -210t-134.5 -105 q178 -52 178 -314v-289q0 -21 0.5 -30.5t2 -27t5 -25.5t10.5 -21t17.5 -19.5t25.5 -15t36 -12.5t47.5 -8t61 -5.5t76.5 -0.5v-77q-77 0 -137 7.5t-99.5 18t-67.5 30.5t-42 37t-21.5 46t-9 49t-1.5 54v289q0 72 -10 118t-37.5 84t-80.5 60t-136 32z" />
<glyph unicode="|" horiz-adv-x="1685" d="M794 -517v2089h97v-2089h-97z" />
<glyph unicode="}" horiz-adv-x="846" d="M105 -213q42 -1 76.5 0.5t61 5.5t47.5 8t36 12.5t25.5 15t17.5 19.5t10.5 21t5 25.5t2 27t0.5 30.5v289q0 262 178 314q-91 27 -134.5 105t-43.5 210v289q0 21 -0.5 30.5t-2 27t-5 25.5t-10.5 21t-17.5 19.5t-25.5 15t-36 12.5t-47.5 8t-61 5.5t-76.5 0.5v77 q77 0 137 -7.5t99.5 -18t67.5 -30.5t42 -37t21.5 -46t9 -49t1.5 -54v-289q0 -72 10 -118t37.5 -84t80.5 -60t136 -32v-41q-83 -10 -136 -32t-80.5 -60t-37.5 -84t-10 -118v-289q0 -34 -1.5 -54t-9 -49t-21.5 -46t-42 -37t-67.5 -30.5t-99.5 -18t-137 -7.5v77z" />
<glyph unicode="~" horiz-adv-x="917" d="M-25 447q22 99 75 142.5t167 43.5q81 0 216 -42q130 -48 170.5 -60t86.5 -12q77 0 125.5 51t67.5 127l59 -20q-58 -245 -256 -245q-16 0 -34.5 2.5t-45.5 10t-40.5 11.5t-51 16t-46.5 15q-108 42 -147 50.5t-104 8.5q-93 0 -132.5 -27.5t-54.5 -98.5z" />
<glyph horiz-adv-x="1521" d="M188 0v1456h1145v-1456h-1145zM360 124h801v1206h-801v-1206z" />
<glyph unicode="&#xa1;" horiz-adv-x="391" d="M108 944v160h157v-160h-157zM129 -352l32 1093h56l32 -1093h-120z" />
<glyph unicode="&#xa2;" horiz-adv-x="969" d="M96 502q0 -225 125.5 -365t339.5 -156v-159h75v157q99 4 187 36.5t141 84.5l-34 67q-126 -99 -294 -106v909q166 -4 264 -90l33 72q-50 44 -130.5 71t-166.5 29v202h-75v-205q-214 -19 -339.5 -166t-125.5 -381zM196 502q0 196 98 320t267 144v-903q-168 17 -266.5 134.5 t-98.5 304.5z" />
<glyph unicode="&#xa3;" horiz-adv-x="1136" d="M125 714v77h200v210q0 107 22 191t68 148.5t123.5 99t182.5 34.5q101 0 167 -25t72 -50l-35 -72q0 7 -28.5 19.5t-81 22.5t-104.5 7q-277 -17 -277 -350v-235h392v-77h-388v-162q0 -99 -19 -187t-46.5 -142t-52 -87t-41.5 -40h706v-96h-840v104q53 31 91 91t55.5 129 t25 124.5t7.5 101.5v164h-199z" />
<glyph unicode="&#xa4;" horiz-adv-x="1218" d="M119 1475l51 51l197 -196q105 83 243 83q135 0 243 -82l195 195l51 -51l-193 -193q96 -109 96 -254q0 -139 -89 -245l186 -185l-51 -51l-186 186q-109 -90 -252 -90t-252 91l-187 -187l-51 51l187 187q-88 106 -88 243q0 144 95 252zM307 1030q0 -132 86.5 -224 t215.5 -92t215.5 92t86.5 224q0 131 -86 218t-216 87t-216 -87t-86 -218z" />
<glyph unicode="&#xa5;" horiz-adv-x="1143" d="M34 1456l476 -857h-278v-66h282v-118h-282v-66h282v-349h108v349h275v66h-275v118h277v66h-274l484 857h-105l-434 -773l-427 773h-109z" />
<glyph unicode="&#xa6;" horiz-adv-x="500" d="M208 377h95v-894h-95v894zM209 756v816h96v-816h-96z" />
<glyph unicode="&#xa7;" horiz-adv-x="1024" d="M201 716q0 91 76.5 156t184.5 88q-133 70 -181.5 123.5t-48.5 146.5q0 68 30.5 121.5t81.5 85t112.5 47.5t129.5 16q108 0 198 -38v-71q-92 38 -197 38q-54 0 -101.5 -11.5t-86 -34.5t-61 -62.5t-22.5 -90.5q0 -49 17 -79.5t62.5 -62t151.5 -86.5q25 -13 64 -33t59 -30 t49 -26t43.5 -26.5t34.5 -26t29 -29t18.5 -31.5t13 -37.5t3.5 -42.5q0 -89 -68 -159.5t-164 -113.5q106 -53 158 -112t52 -145q0 -140 -94.5 -210.5t-247.5 -70.5q-134 0 -278 50v74q151 -58 278 -58q118 0 188.5 52t70.5 152q1 24 -5.5 46t-15 38.5t-29 35t-35 30t-47 29.5 t-51 27.5t-61.5 30t-64 31.5q-44 22 -64 32.5t-52.5 29.5t-47.5 32t-34.5 33t-27.5 39.5t-14.5 45.5t-6.5 57zM277 719q0 -21 4 -39.5t17 -36t23 -30t35.5 -29t40.5 -26t52.5 -27t56.5 -26t67 -29.5q203 91 203 247q0 60 -46 94t-208 113q-122 -42 -183.5 -91t-61.5 -120z " />
<glyph unicode="&#xa8;" horiz-adv-x="743" d="M156 1210v108h98v-108h-98zM492 1210v108h99v-108h-99z" />
<glyph unicode="&#xa9;" horiz-adv-x="1748" d="M110 724q0 154 61 295.5t163 243.5t243.5 163t295.5 61q155 0 296.5 -61t244 -163t163.5 -243.5t61 -295.5q0 -155 -61 -296t-163.5 -243t-244 -162.5t-296.5 -60.5q-154 0 -295.5 60.5t-243.5 162.5t-163 243t-61 296zM209 719q0 -135 53 -259t142 -215t213 -145 t259 -54t258 54t212 145t142 215t53 259t-53 259.5t-142 215.5t-212 145t-258 54t-259 -54t-213 -145t-142 -215.5t-53 -259.5zM472 714q0 112 34.5 202.5t94.5 148.5t139 89t169 31q65 0 129.5 -22.5t106.5 -62.5l-27 -62q-40 33 -100 51.5t-116 18.5q-44 0 -87.5 -10 t-90.5 -37.5t-82 -70t-58 -113.5t-23 -161q0 -173 85 -273.5t235 -100.5q166 0 261 72l30 -63q-41 -37 -113 -61t-163 -24q-193 0 -308.5 114.5t-115.5 333.5z" />
<glyph unicode="&#xaa;" horiz-adv-x="691" d="M70 1003q0 91 76.5 144t224.5 53h169v16q0 54 -5.5 85.5t-22 57t-48.5 36t-84 10.5q-61 0 -122.5 -13.5t-92.5 -27.5l-31 -13l-19 62q13 7 36.5 18t91.5 29t131 18q105 0 173.5 -49.5t73.5 -144.5q0 -21 -3 -208l-2 -157l1 -43q1 -27 4 -67h-92l4 91q-67 -98 -220 -98 q-114 0 -178.5 56.5t-64.5 144.5zM168 1012q0 -132 161 -132q51 0 90.5 14.5t62 36.5t37 53t19 59.5t4.5 61.5v32h-44h-73.5t-63 -1.5t-58 -4.5t-46 -9t-40 -15t-26 -22t-18.5 -31.5t-5 -41.5z" />
<glyph unicode="&#xab;" horiz-adv-x="1040" d="M111 546l268 368h113l-260 -367l252 -361h-110zM526 546l267 368h114l-261 -367l253 -361h-110z" />
<glyph unicode="&#xac;" horiz-adv-x="1473" d="M243 694v92h1034v-536h-87v444h-947z" />
<glyph unicode="&#xad;" horiz-adv-x="593" d="M67 527v73h459v-73h-459z" />
<glyph unicode="&#xae;" horiz-adv-x="1748" d="M110 724q0 154 61 295.5t163 243.5t243.5 163t295.5 61q155 0 296.5 -61t244 -163t163.5 -243.5t61 -295.5q0 -155 -61 -296t-163.5 -243t-244 -162.5t-296.5 -60.5q-154 0 -295.5 60.5t-243.5 162.5t-163 243t-61 296zM209 719q0 -135 53 -259t142 -215t213 -145 t259 -54t258 54t212 145t142 215t53 259t-53 259.5t-142 215.5t-212 145t-258 54t-259 -54t-213 -145t-142 -215.5t-53 -259.5zM575 261v946h241q220 0 318.5 -63.5t98.5 -188.5q0 -112 -52.5 -171.5t-196.5 -80.5l239 -442h-118l-227 437h-206v-437h-97zM669 762h152 q168 0 235 35t67 140q0 116 -65.5 150t-263.5 34h-125v-359z" />
<glyph unicode="&#xaf;" horiz-adv-x="674" d="M72 1235v75h530v-75h-530z" />
<glyph unicode="&#xb0;" horiz-adv-x="812" d="M115 1145q0 119 81 201t210 82q128 0 209.5 -82t81.5 -201q0 -118 -82.5 -202t-208.5 -84q-127 0 -209 84t-82 202zM209 1147q0 -84 50.5 -143t146.5 -59q95 0 145 59t50 143q0 83 -51 140.5t-144 57.5t-145 -57.5t-52 -140.5z" />
<glyph unicode="&#xb1;" horiz-adv-x="1180" d="M174 0v92h853v-92h-853zM198 597v94h358v388h83v-388h337v-94h-337v-388h-83v388h-358z" />
<glyph unicode="&#xb2;" horiz-adv-x="942" d="M192 631v70l293 305q85 89 112.5 138t27.5 104q0 60 -39 102t-127 42q-164 0 -171 -170l-75 4q2 108 68 169t178 61q116 0 178.5 -59t62.5 -146q0 -79 -32 -137.5t-133 -161.5l-246 -252h416v-69h-513z" />
<glyph unicode="&#xb3;" horiz-adv-x="878" d="M148 695l39 62q38 -37 95.5 -60t115.5 -23q77 0 124.5 46t47.5 120q0 77 -50 122t-145 45h-97v71h97q89 0 135 40.5t46 109.5q0 71 -47.5 114.5t-124.5 43.5q-120 0 -181 -84l-47 44q26 50 88 80t139 30q115 0 183 -62t68 -166q0 -64 -37 -113t-99 -68q68 -20 109 -76 t41 -131q0 -107 -68 -171t-182 -64q-72 0 -140 24.5t-110 65.5z" />
<glyph unicode="&#xb4;" horiz-adv-x="607" d="M119 1174l196 282h132l-273 -282h-55z" />
<glyph unicode="&#xb5;" horiz-adv-x="1285" d="M198 -328v1354h98v-618q0 -173 72.5 -262.5t215.5 -89.5q73 0 138 22t109.5 56t77 75t48 78.5t15.5 67.5v671h98v-801q0 -137 5 -225h-89l-9 191q-137 -217 -393 -217q-192 0 -288 110v-416z" />
<glyph unicode="&#xb6;" horiz-adv-x="1191" d="M156 1139q0 89 32 152t94 99t142.5 51.5t188.5 15.5h392v-76h-91v-1561h-73v1561h-243v-1561h-73v1023q-47 -3 -97.5 6.5t-99 33.5t-87 58.5t-62 86t-23.5 111.5z" />
<glyph unicode="&#xb7;" horiz-adv-x="600" />
<glyph unicode="&#xb8;" horiz-adv-x="529" d="M86 -350l12 58q19 -9 59 -18.5t74 -10.5q68 -3 93 13t25 54q0 65 -176 65h-6l34 194h59l-24 -144q39 -1 67.5 -5.5t62.5 -16t53 -37t19 -63.5q0 -33 -12.5 -57.5t-32 -38t-47 -21.5t-53 -10t-53.5 -1q-75 3 -154 39z" />
<glyph unicode="&#xb9;" horiz-adv-x="896" d="M238 649v61h154v662l-149 -76l2 74l153 86h68v-746h140v-61h-368z" />
<glyph unicode="&#xba;" horiz-adv-x="850" d="M81 1155q0 150 92 247.5t254 97.5q164 0 252.5 -96.5t88.5 -250.5q0 -149 -91 -248t-251 -99q-164 0 -254.5 98t-90.5 251zM189 1152q0 -124 61.5 -192t179.5 -68q111 0 174.5 68.5t63.5 186.5q0 122 -64 191.5t-180 69.5q-111 0 -173 -68.5t-62 -187.5z" />
<glyph unicode="&#xbb;" horiz-adv-x="1040" d="M113 180l261 366l-253 362h110l263 -361l-267 -367h-114zM528 180l261 366l-253 362h110l263 -361l-267 -367h-114z" />
<glyph unicode="&#xbc;" horiz-adv-x="1654" d="M130 649v61h154v662l-149 -76l2 74l153 86h68v-746h140v-61h-368zM321 0l930 1456h68l-915 -1456h-83zM887 184v69l374 533h99v-530h83l-1 -72h-86v-184h-74v184h-395zM973 256h307v441z" />
<glyph unicode="&#xbd;" horiz-adv-x="1563" d="M124 649v61h154v662l-149 -76l2 74l153 86h68v-746h140v-61h-368zM267 0l930 1456h68l-915 -1456h-83zM917 0v70l293 305q85 89 112.5 138t27.5 104q0 60 -39 102t-127 42q-164 0 -171 -170l-75 4q2 108 68 169t178 61q116 0 178.5 -59t62.5 -146q0 -79 -32 -137.5 t-133 -161.5l-246 -252h416v-69h-513z" />
<glyph unicode="&#xbe;" horiz-adv-x="1601" d="M148 695l39 62q38 -37 95.5 -60t115.5 -23q77 0 124.5 46t47.5 120q0 77 -50 122t-145 45h-97v71h97q89 0 135 40.5t46 109.5q0 71 -47.5 114.5t-124.5 43.5q-120 0 -181 -84l-47 44q26 50 88 80t139 30q115 0 183 -62t68 -166q0 -64 -37 -113t-99 -68q68 -20 109 -76 t41 -131q0 -107 -68 -171t-182 -64q-72 0 -140 24.5t-110 65.5zM410 0l930 1456h68l-915 -1456h-83zM943 184v69l374 533h99v-530h83l-1 -72h-86v-184h-74v184h-395zM1029 256h307v441z" />
<glyph unicode="&#xbf;" horiz-adv-x="1032" d="M132 -47q0 60 24 119.5t62 108t83.5 95.5t91.5 90t84 83t62 82.5t24 81.5v142h80v-148q0 -54 -30.5 -109t-75.5 -100t-98.5 -98t-98.5 -101.5t-75.5 -111t-30.5 -125.5q0 -127 87.5 -190t226.5 -63q141 0 272 81v-105q-135 -65 -290 -65q-193 0 -295.5 84t-102.5 249z M517 946v167h163v-167h-163z" />
<glyph unicode="&#xc0;" horiz-adv-x="1329" d="M68 0l530 1456h134l529 -1456h-112l-143 399h-674l-143 -399h-121zM318 1886h135l237 -282h-54zM359 473h619l-155 447l-156 446l-154 -446z" />
<glyph unicode="&#xc1;" horiz-adv-x="1329" d="M68 0l530 1456h134l529 -1456h-112l-143 399h-674l-143 -399h-121zM359 473h619l-155 447l-156 446l-154 -446zM640 1604l196 282h132l-273 -282h-55z" />
<glyph unicode="&#xc2;" horiz-adv-x="1329" d="M68 0l530 1456h134l529 -1456h-112l-143 399h-674l-143 -399h-121zM359 473h619l-155 447l-156 446l-154 -446zM437 1645l206 272h57l201 -272h-56l-180 185l-178 -185h-50z" />
<glyph unicode="&#xc3;" horiz-adv-x="1329" d="M68 0l530 1456h134l529 -1456h-112l-143 399h-674l-143 -399h-121zM359 473h619l-155 447l-156 446l-154 -446zM388 1680q0 71 31 107.5t88 36.5q50 0 161.5 -48.5t145.5 -48.5q27 0 34.5 19.5t7.5 66.5h66q0 -150 -101 -150q-48 0 -161.5 48.5t-147.5 48.5 q-62 0 -62 -80h-62z" />
<glyph unicode="&#xc4;" horiz-adv-x="1329" d="M68 0l530 1456h134l529 -1456h-112l-143 399h-674l-143 -399h-121zM359 473h619l-155 447l-156 446l-154 -446zM447 1640v108h98v-108h-98zM783 1640v108h99v-108h-99z" />
<glyph unicode="&#xc5;" horiz-adv-x="1329" d="M68 0l530 1456h134l529 -1456h-112l-143 399h-674l-143 -399h-121zM359 473h619l-155 447l-156 446l-154 -446zM490 1744q0 73 49.5 120.5t125.5 47.5t125.5 -47.5t49.5 -120.5t-49.5 -120.5t-125.5 -47.5t-125.5 47.5t-49.5 120.5zM560 1744q0 -49 29.5 -80.5 t75.5 -31.5t75.5 31.5t29.5 80.5t-29.5 80.5t-75.5 31.5t-75.5 -31.5t-29.5 -80.5z" />
<glyph unicode="&#xc6;" horiz-adv-x="1860" d="M35 0l834 1456h908v-87h-733l48 -573h615v-77h-617l57 -636h654v-83h-721l-43 459h-650l-263 -459h-89zM422 536h605l-66 833h-66z" />
<glyph unicode="&#xc7;" horiz-adv-x="1389" d="M110 701q0 356 194 568t520 212q256 0 419 -139l-44 -68q-155 121 -375 121q-276 0 -440 -188.5t-164 -505.5q0 -290 160.5 -463t429.5 -173q239 0 428 125l35 -75q-210 -137 -463 -137q-320 0 -510 196.5t-190 526.5zM665 -350l12 58q19 -9 59 -18.5t74 -10.5 q68 -3 93 13t25 54q0 65 -176 65h-6l34 194h59l-24 -144q39 -1 67.5 -5.5t62.5 -16t53 -37t19 -63.5q0 -33 -12.5 -57.5t-32 -38t-47 -21.5t-53 -10t-53.5 -1q-75 3 -154 39z" />
<glyph unicode="&#xc8;" horiz-adv-x="1219" d="M224 0v1456h810v-86h-702v-583h663v-86h-665v-615h734v-86h-840zM291 1886h135l237 -282h-54z" />
<glyph unicode="&#xc9;" horiz-adv-x="1219" d="M224 0v1456h810v-86h-702v-583h663v-86h-665v-615h734v-86h-840zM613 1604l196 282h132l-273 -282h-55z" />
<glyph unicode="&#xca;" horiz-adv-x="1219" d="M224 0v1456h810v-86h-702v-583h663v-86h-665v-615h734v-86h-840zM410 1645l206 272h57l201 -272h-56l-180 185l-178 -185h-50z" />
<glyph unicode="&#xcb;" horiz-adv-x="1219" d="M224 0v1456h810v-86h-702v-583h663v-86h-665v-615h734v-86h-840zM420 1640v108h98v-108h-98zM756 1640v108h99v-108h-99z" />
<glyph unicode="&#xcc;" horiz-adv-x="592" d="M-50 1886h135l237 -282h-54zM242 0v1456h108v-1456h-108z" />
<glyph unicode="&#xcd;" horiz-adv-x="592" d="M242 0v1456h108v-1456h-108zM272 1604l196 282h132l-273 -282h-55z" />
<glyph unicode="&#xce;" horiz-adv-x="592" d="M69 1645l206 272h57l201 -272h-56l-180 185l-178 -185h-50zM242 0v1456h108v-1456h-108z" />
<glyph unicode="&#xcf;" horiz-adv-x="592" d="M79 1640v108h98v-108h-98zM242 0v1456h108v-1456h-108zM415 1640v108h99v-108h-99z" />
<glyph unicode="&#xd0;" horiz-adv-x="1523" d="M64 717v73h459v-73h-459zM224 0v1456h374q387 0 588 -189.5t201 -554.5q0 -350 -195.5 -531t-571.5 -181h-396zM332 86h288q323 0 490 159.5t167 466.5q0 323 -173 490.5t-506 167.5h-266v-1284z" />
<glyph unicode="&#xd1;" horiz-adv-x="1571" d="M224 0v1456h106l784 -1121l127 -193v1314h106v-1456h-105l-803 1137l-109 166v-1303h-106zM541 1680q0 71 31 107.5t88 36.5q50 0 161.5 -48.5t145.5 -48.5q27 0 34.5 19.5t7.5 66.5h66q0 -150 -101 -150q-48 0 -161.5 48.5t-147.5 48.5q-62 0 -62 -80h-62z" />
<glyph unicode="&#xd2;" horiz-adv-x="1572" d="M110 723q0 346 183.5 552t494.5 206q306 0 490 -206.5t184 -551.5q0 -339 -183.5 -541.5t-490.5 -202.5q-310 0 -494 202t-184 542zM220 723q0 -300 155 -479t413 -179t411 179t153 479q0 307 -153.5 489.5t-410.5 182.5q-259 0 -413.5 -182.5t-154.5 -489.5zM439 1886 h135l237 -282h-54z" />
<glyph unicode="&#xd3;" horiz-adv-x="1572" d="M110 723q0 346 183.5 552t494.5 206q306 0 490 -206.5t184 -551.5q0 -339 -183.5 -541.5t-490.5 -202.5q-310 0 -494 202t-184 542zM220 723q0 -300 155 -479t413 -179t411 179t153 479q0 307 -153.5 489.5t-410.5 182.5q-259 0 -413.5 -182.5t-154.5 -489.5zM761 1604 l196 282h132l-273 -282h-55z" />
<glyph unicode="&#xd4;" horiz-adv-x="1572" d="M110 723q0 346 183.5 552t494.5 206q306 0 490 -206.5t184 -551.5q0 -339 -183.5 -541.5t-490.5 -202.5q-310 0 -494 202t-184 542zM220 723q0 -300 155 -479t413 -179t411 179t153 479q0 307 -153.5 489.5t-410.5 182.5q-259 0 -413.5 -182.5t-154.5 -489.5zM558 1645 l206 272h57l201 -272h-56l-180 185l-178 -185h-50z" />
<glyph unicode="&#xd5;" horiz-adv-x="1572" d="M110 723q0 346 183.5 552t494.5 206q306 0 490 -206.5t184 -551.5q0 -339 -183.5 -541.5t-490.5 -202.5q-310 0 -494 202t-184 542zM220 723q0 -300 155 -479t413 -179t411 179t153 479q0 307 -153.5 489.5t-410.5 182.5q-259 0 -413.5 -182.5t-154.5 -489.5zM509 1680 q0 71 31 107.5t88 36.5q50 0 161.5 -48.5t145.5 -48.5q27 0 34.5 19.5t7.5 66.5h66q0 -150 -101 -150q-48 0 -161.5 48.5t-147.5 48.5q-62 0 -62 -80h-62z" />
<glyph unicode="&#xd6;" horiz-adv-x="1572" d="M110 723q0 346 183.5 552t494.5 206q306 0 490 -206.5t184 -551.5q0 -339 -183.5 -541.5t-490.5 -202.5q-310 0 -494 202t-184 542zM220 723q0 -300 155 -479t413 -179t411 179t153 479q0 307 -153.5 489.5t-410.5 182.5q-259 0 -413.5 -182.5t-154.5 -489.5zM568 1640 v108h98v-108h-98zM904 1640v108h99v-108h-99z" />
<glyph unicode="&#xd7;" d="M212 242l316 317l-316 317l59 62l318 -317l315 317l62 -65l-318 -314l318 -314l-62 -65l-315 315l-318 -315z" />
<glyph unicode="&#xd8;" horiz-adv-x="1572" d="M110 723q0 -217 78 -382t221 -258l-112 -204l63 -34l111 203q141 -69 317 -69q307 0 490.5 202.5t183.5 541.5q0 106 -18.5 201t-53.5 175t-86 145t-116 114l117 214l-60 33l-115 -210q-149 86 -342 86q-311 0 -494.5 -206t-183.5 -552zM220 723q0 307 154.5 489.5 t413.5 182.5q24 0 47.5 -1.5t46 -5t44.5 -9t42.5 -12t40.5 -15t39 -18.5t37 -21l-629 -1144q-113 84 -174.5 226.5t-61.5 327.5zM516 130l624 1141q102 -87 157 -227.5t55 -320.5q0 -300 -153 -479t-411 -179q-76 0 -144.5 16.5t-127.5 48.5z" />
<glyph unicode="&#xd9;" horiz-adv-x="1480" d="M176 514v942h108v-950q0 -217 114 -329t334 -112t334 112t114 329v950h108v-942q-2 -263 -143.5 -399t-412.5 -136q-273 0 -414.5 136t-141.5 399zM399 1886h135l237 -282h-54z" />
<glyph unicode="&#xda;" horiz-adv-x="1480" d="M176 514v942h108v-950q0 -217 114 -329t334 -112t334 112t114 329v950h108v-942q-2 -263 -143.5 -399t-412.5 -136q-273 0 -414.5 136t-141.5 399zM721 1604l196 282h132l-273 -282h-55z" />
<glyph unicode="&#xdb;" horiz-adv-x="1480" d="M176 514v942h108v-950q0 -217 114 -329t334 -112t334 112t114 329v950h108v-942q-2 -263 -143.5 -399t-412.5 -136q-273 0 -414.5 136t-141.5 399zM518 1645l206 272h57l201 -272h-56l-180 185l-178 -185h-50z" />
<glyph unicode="&#xdc;" horiz-adv-x="1480" d="M176 514v942h108v-950q0 -217 114 -329t334 -112t334 112t114 329v950h108v-942q-2 -263 -143.5 -399t-412.5 -136q-273 0 -414.5 136t-141.5 399zM528 1640v108h98v-108h-98zM864 1640v108h99v-108h-99z" />
<glyph unicode="&#xdd;" horiz-adv-x="1235" d="M80 1456h109l427 -773l434 773h105l-487 -862v-594h-108v591zM587 1604l196 282h132l-273 -282h-55z" />
<glyph unicode="&#xde;" horiz-adv-x="1255" d="M213 0v1456h111v-245h240q108 0 195 -10.5t168.5 -39.5t136 -76t87.5 -123.5t33 -178.5q0 -214 -145.5 -319.5t-395.5 -105.5h-318v-358h-112zM325 460h306q199 0 317.5 80t118.5 239q0 78 -23.5 136t-64.5 95t-103.5 59.5t-133.5 31.5t-162 9h-255v-650z" />
<glyph unicode="&#xdf;" horiz-adv-x="1240" d="M196 0l3 1062q1 232 102.5 352t295.5 120q178 0 283.5 -88.5t105.5 -237.5q0 -153 -74 -229t-251 -122l-39 -10l38 -10q75 -20 142 -47.5t132 -71.5t112 -98t75.5 -129t28.5 -162q0 -163 -110 -260t-295 -97q-145 0 -304 65l9 83q168 -66 295 -66q139 0 222 75t83 200 q0 174 -117 281.5t-396 194.5v84q82 18 141.5 38t98.5 44.5t63 48t35.5 56.5t15 61t3.5 71q0 110 -81.5 175t-217.5 65q-148 0 -224.5 -98t-76.5 -288v-1062h-98z" />
<glyph unicode="&#xe0;" horiz-adv-x="1253" d="M96 524q0 241 132 384.5t353 143.5q128 0 225 -62.5t141 -164.5v201h98v-1026h-98v215q-48 -108 -142.5 -172t-227.5 -64q-220 0 -350.5 148t-130.5 397zM196 524q0 -211 104.5 -337t280.5 -126q173 0 269.5 124.5t96.5 338.5q0 203 -99.5 324.5t-266.5 121.5 q-175 0 -280 -121.5t-105 -324.5zM240 1456h135l237 -282h-54z" />
<glyph unicode="&#xe1;" horiz-adv-x="1253" d="M96 524q0 241 132 384.5t353 143.5q128 0 225 -62.5t141 -164.5v201h98v-1026h-98v215q-48 -108 -142.5 -172t-227.5 -64q-220 0 -350.5 148t-130.5 397zM196 524q0 -211 104.5 -337t280.5 -126q173 0 269.5 124.5t96.5 338.5q0 203 -99.5 324.5t-266.5 121.5 q-175 0 -280 -121.5t-105 -324.5zM562 1174l196 282h132l-273 -282h-55z" />
<glyph unicode="&#xe2;" horiz-adv-x="1253" d="M96 524q0 241 132 384.5t353 143.5q128 0 225 -62.5t141 -164.5v201h98v-1026h-98v215q-48 -108 -142.5 -172t-227.5 -64q-220 0 -350.5 148t-130.5 397zM196 524q0 -211 104.5 -337t280.5 -126q173 0 269.5 124.5t96.5 338.5q0 203 -99.5 324.5t-266.5 121.5 q-175 0 -280 -121.5t-105 -324.5zM359 1215l206 272h57l201 -272h-56l-180 185l-178 -185h-50z" />
<glyph unicode="&#xe3;" horiz-adv-x="1253" d="M96 524q0 241 132 384.5t353 143.5q128 0 225 -62.5t141 -164.5v201h98v-1026h-98v215q-48 -108 -142.5 -172t-227.5 -64q-220 0 -350.5 148t-130.5 397zM196 524q0 -211 104.5 -337t280.5 -126q173 0 269.5 124.5t96.5 338.5q0 203 -99.5 324.5t-266.5 121.5 q-175 0 -280 -121.5t-105 -324.5zM310 1250q0 71 31 107.5t88 36.5q50 0 161.5 -48.5t145.5 -48.5q27 0 34.5 19.5t7.5 66.5h66q0 -150 -101 -150q-48 0 -161.5 48.5t-147.5 48.5q-62 0 -62 -80h-62z" />
<glyph unicode="&#xe4;" horiz-adv-x="1253" d="M96 524q0 241 132 384.5t353 143.5q128 0 225 -62.5t141 -164.5v201h98v-1026h-98v215q-48 -108 -142.5 -172t-227.5 -64q-220 0 -350.5 148t-130.5 397zM196 524q0 -211 104.5 -337t280.5 -126q173 0 269.5 124.5t96.5 338.5q0 203 -99.5 324.5t-266.5 121.5 q-175 0 -280 -121.5t-105 -324.5zM369 1210v108h98v-108h-98zM705 1210v108h99v-108h-99z" />
<glyph unicode="&#xe5;" horiz-adv-x="1253" d="M96 524q0 241 132 384.5t353 143.5q128 0 225 -62.5t141 -164.5v201h98v-1026h-98v215q-48 -108 -142.5 -172t-227.5 -64q-220 0 -350.5 148t-130.5 397zM196 524q0 -211 104.5 -337t280.5 -126q173 0 269.5 124.5t96.5 338.5q0 203 -99.5 324.5t-266.5 121.5 q-175 0 -280 -121.5t-105 -324.5zM412 1314q0 73 49.5 120.5t125.5 47.5t125.5 -47.5t49.5 -120.5t-49.5 -120.5t-125.5 -47.5t-125.5 47.5t-49.5 120.5zM482 1314q0 -49 29.5 -80.5t75.5 -31.5t75.5 31.5t29.5 80.5t-29.5 80.5t-75.5 31.5t-75.5 -31.5t-29.5 -80.5z" />
<glyph unicode="&#xe6;" horiz-adv-x="1811" d="M100 274q0 65 15 114t48 82.5t75.5 54.5t108 33t133.5 16t163 4h202q1 172 -83 282t-232 110q-189 0 -352 -85l-34 79q1 1 13 6.5t19 9t23.5 11t30 12t35.5 11.5t41.5 12t46.5 10t53.5 8.5t58.5 5.5t65 2q149 0 250 -77t127 -208q48 128 155 206.5t245 78.5 q190 0 305 -136.5t115 -388.5v-18h-764v-35q0 -80 20 -151t60 -131t109.5 -95.5t160.5 -35.5q57 0 111.5 12t92 29t67 34t44.5 29l14 12l36 -69q-6 -5 -16 -14t-46 -31t-75.5 -39t-101.5 -31t-126 -14q-150 0 -259 83t-151 217q-15 -56 -47.5 -107t-83.5 -95.5t-129 -70.5 t-172 -26q-166 0 -268.5 79t-102.5 215zM196 280q0 -111 77.5 -165t197.5 -54q187 0 283.5 122.5t94.5 323.5h-222q-102 0 -169 -5.5t-120.5 -19.5t-82.5 -40t-44 -65t-15 -97zM963 578h677l-1 30q-2 62 -21.5 122.5t-57 115.5t-103.5 89.5t-150 34.5q-77 0 -143.5 -35.5 t-109.5 -92.5t-67 -126t-24 -138z" />
<glyph unicode="&#xe7;" horiz-adv-x="1022" d="M96 502q0 251 143 400.5t383 149.5q89 0 174 -27t137 -73l-33 -72q-103 90 -278 90q-194 0 -310 -127t-116 -341q0 -201 113 -321t303 -120q183 0 318 106l34 -67q-56 -55 -151.5 -88t-200.5 -33q-235 0 -375.5 142t-140.5 381zM442 -350l12 58q19 -9 59 -18.5t74 -10.5 q68 -3 93 13t25 54q0 65 -176 65h-6l34 194h59l-24 -144q39 -1 67.5 -5.5t62.5 -16t53 -37t19 -63.5q0 -33 -12.5 -57.5t-32 -38t-47 -21.5t-53 -10t-53.5 -1q-75 3 -154 39z" />
<glyph unicode="&#xe8;" horiz-adv-x="1133" d="M96 508q0 248 135 396t361 148q207 0 330 -132.5t123 -354.5v-58h-849q-2 -203 112 -324.5t308 -121.5q95 0 186 31t160 85l36 -69q-71 -59 -174.5 -94t-207.5 -35q-237 0 -378.5 144t-141.5 385zM202 578h761q-10 179 -110.5 285.5t-260.5 106.5q-164 0 -270 -106.5 t-120 -285.5zM238 1456h135l237 -282h-54z" />
<glyph unicode="&#xe9;" horiz-adv-x="1133" d="M96 508q0 248 135 396t361 148q207 0 330 -132.5t123 -354.5v-58h-849q-2 -203 112 -324.5t308 -121.5q95 0 186 31t160 85l36 -69q-71 -59 -174.5 -94t-207.5 -35q-237 0 -378.5 144t-141.5 385zM202 578h761q-10 179 -110.5 285.5t-260.5 106.5q-164 0 -270 -106.5 t-120 -285.5zM560 1174l196 282h132l-273 -282h-55z" />
<glyph unicode="&#xea;" horiz-adv-x="1133" d="M96 508q0 248 135 396t361 148q207 0 330 -132.5t123 -354.5v-58h-849q-2 -203 112 -324.5t308 -121.5q95 0 186 31t160 85l36 -69q-71 -59 -174.5 -94t-207.5 -35q-237 0 -378.5 144t-141.5 385zM202 578h761q-10 179 -110.5 285.5t-260.5 106.5q-164 0 -270 -106.5 t-120 -285.5zM357 1215l206 272h57l201 -272h-56l-180 185l-178 -185h-50z" />
<glyph unicode="&#xeb;" horiz-adv-x="1133" d="M96 508q0 248 135 396t361 148q207 0 330 -132.5t123 -354.5v-58h-849q-2 -203 112 -324.5t308 -121.5q95 0 186 31t160 85l36 -69q-71 -59 -174.5 -94t-207.5 -35q-237 0 -378.5 144t-141.5 385zM202 578h761q-10 179 -110.5 285.5t-260.5 106.5q-164 0 -270 -106.5 t-120 -285.5zM367 1210v108h98v-108h-98zM703 1210v108h99v-108h-99z" />
<glyph unicode="&#xec;" horiz-adv-x="473" d="M-110 1456h135l237 -282h-54zM185 1026h101l2 -1026h-101z" />
<glyph unicode="&#xed;" horiz-adv-x="473" d="M185 1026h101l2 -1026h-101zM212 1174l196 282h132l-273 -282h-55z" />
<glyph unicode="&#xee;" horiz-adv-x="473" d="M9 1215l206 272h57l201 -272h-56l-180 185l-178 -185h-50zM185 1026h101l2 -1026h-101z" />
<glyph unicode="&#xef;" horiz-adv-x="473" d="M19 1210v108h98v-108h-98zM185 1026h101l2 -1026h-101zM355 1210v108h99v-108h-99z" />
<glyph unicode="&#xf0;" horiz-adv-x="1231" d="M125 431q0 212 126.5 336t350.5 124q151 0 256 -63t156 -152q-11 201 -87.5 350.5t-238.5 260.5l-161 -124l-50 67l135 104q-130 75 -326 138l43 77q207 -62 360 -156l165 127l52 -65l-144 -111q337 -251 337 -741q0 -298 -123 -461.5t-357 -163.5q-230 0 -362 122.5 t-132 330.5zM225 431q0 -171 105 -271t289 -100q179 0 276.5 114t97.5 311q0 143 -109 233.5t-282 90.5q-178 0 -277.5 -102t-99.5 -276z" />
<glyph unicode="&#xf1;" horiz-adv-x="1257" d="M196 1026h89l10 -206q52 112 159 172t245 60q368 0 368 -430v-622h-98v622q0 348 -270 348q-149 0 -255 -75.5t-144 -216.5v-678h-98v880zM386 1250q0 71 31 107.5t88 36.5q50 0 161.5 -48.5t145.5 -48.5q27 0 34.5 19.5t7.5 66.5h66q0 -150 -101 -150q-48 0 -161.5 48.5 t-147.5 48.5q-62 0 -62 -80h-62z" />
<glyph unicode="&#xf2;" horiz-adv-x="1230" d="M96 510q0 248 141 395t378 147t378 -147t141 -395q0 -242 -141 -386.5t-378 -144.5t-378 144.5t-141 386.5zM196 510q0 -207 111 -328t308 -121t308 121t111 328q0 212 -111 336t-308 124t-308 -124t-111 -336zM269 1456h135l237 -282h-54z" />
<glyph unicode="&#xf3;" horiz-adv-x="1230" d="M96 510q0 248 141 395t378 147t378 -147t141 -395q0 -242 -141 -386.5t-378 -144.5t-378 144.5t-141 386.5zM196 510q0 -207 111 -328t308 -121t308 121t111 328q0 212 -111 336t-308 124t-308 -124t-111 -336zM591 1174l196 282h132l-273 -282h-55z" />
<glyph unicode="&#xf4;" horiz-adv-x="1230" d="M96 510q0 248 141 395t378 147t378 -147t141 -395q0 -242 -141 -386.5t-378 -144.5t-378 144.5t-141 386.5zM196 510q0 -207 111 -328t308 -121t308 121t111 328q0 212 -111 336t-308 124t-308 -124t-111 -336zM388 1215l206 272h57l201 -272h-56l-180 185l-178 -185h-50 z" />
<glyph unicode="&#xf5;" horiz-adv-x="1230" d="M96 510q0 248 141 395t378 147t378 -147t141 -395q0 -242 -141 -386.5t-378 -144.5t-378 144.5t-141 386.5zM196 510q0 -207 111 -328t308 -121t308 121t111 328q0 212 -111 336t-308 124t-308 -124t-111 -336zM339 1250q0 71 31 107.5t88 36.5q50 0 161.5 -48.5 t145.5 -48.5q27 0 34.5 19.5t7.5 66.5h66q0 -150 -101 -150q-48 0 -161.5 48.5t-147.5 48.5q-62 0 -62 -80h-62z" />
<glyph unicode="&#xf6;" horiz-adv-x="1230" d="M96 510q0 248 141 395t378 147t378 -147t141 -395q0 -242 -141 -386.5t-378 -144.5t-378 144.5t-141 386.5zM196 510q0 -207 111 -328t308 -121t308 121t111 328q0 212 -111 336t-308 124t-308 -124t-111 -336zM398 1210v108h98v-108h-98zM734 1210v108h99v-108h-99z" />
<glyph unicode="&#xf7;" horiz-adv-x="1006" d="M128 511v91h805v-91h-805zM458 49v166h155l-1 -166h-154zM461 896v167h155v-167h-155z" />
<glyph unicode="&#xf8;" horiz-adv-x="1230" d="M96 510q0 -116 34.5 -213t99 -166t154.5 -108l-101 -233l43 -18l103 235q86 -28 186 -28q237 0 378 144.5t141 386.5q0 173 -71 299.5t-199 189.5l100 229l-48 21l-100 -230q-92 33 -201 33q-237 0 -378 -147t-141 -395zM196 510q0 212 111 336t308 124q92 0 168 -29 l-365 -840q-71 34 -121 92.5t-75.5 138.5t-25.5 178zM463 84l366 836q99 -54 152 -160t53 -250q0 -207 -111 -328t-308 -121q-83 0 -152 23z" />
<glyph unicode="&#xf9;" horiz-adv-x="1285" d="M198 412v614h98v-618q0 -173 72.5 -262.5t215.5 -89.5q73 0 138 22t109.5 56t77 75t48 78.5t15.5 67.5v671h98v-801q0 -137 5 -225h-89l-9 191q-137 -217 -393 -217q-191 0 -288.5 111t-97.5 327zM304 1456h135l237 -282h-54z" />
<glyph unicode="&#xfa;" horiz-adv-x="1285" d="M198 412v614h98v-618q0 -173 72.5 -262.5t215.5 -89.5q73 0 138 22t109.5 56t77 75t48 78.5t15.5 67.5v671h98v-801q0 -137 5 -225h-89l-9 191q-137 -217 -393 -217q-191 0 -288.5 111t-97.5 327zM626 1174l196 282h132l-273 -282h-55z" />
<glyph unicode="&#xfb;" horiz-adv-x="1285" d="M198 412v614h98v-618q0 -173 72.5 -262.5t215.5 -89.5q73 0 138 22t109.5 56t77 75t48 78.5t15.5 67.5v671h98v-801q0 -137 5 -225h-89l-9 191q-137 -217 -393 -217q-191 0 -288.5 111t-97.5 327zM423 1215l206 272h57l201 -272h-56l-180 185l-178 -185h-50z" />
<glyph unicode="&#xfc;" horiz-adv-x="1285" d="M198 412v614h98v-618q0 -173 72.5 -262.5t215.5 -89.5q73 0 138 22t109.5 56t77 75t48 78.5t15.5 67.5v671h98v-801q0 -137 5 -225h-89l-9 191q-137 -217 -393 -217q-191 0 -288.5 111t-97.5 327zM433 1210v108h98v-108h-98zM769 1210v108h99v-108h-99z" />
<glyph unicode="&#xfd;" horiz-adv-x="983" d="M62 1026h106l342 -929l353 929h96l-412 -1078q-116 -315 -390 -365l-33 72q75 19 131.5 50.5t91.5 71.5t54 71.5t36 72.5l24 58zM494 1174l196 282h132l-273 -282h-55z" />
<glyph unicode="&#xfe;" horiz-adv-x="1247" d="M171 -449v1899h114l2 -619q56 106 154 163t228 57q221 0 349.5 -141.5t128.5 -397.5q0 -246 -129.5 -390.5t-348.5 -144.5q-128 0 -229.5 59.5t-154.5 164.5l1 -650h-115zM285 512q0 -205 100.5 -328t283.5 -123q168 0 267 120.5t99 330.5q0 214 -98.5 333.5 t-267.5 119.5q-104 0 -181 -38t-120 -104t-63 -143.5t-20 -167.5z" />
<glyph unicode="&#xff;" horiz-adv-x="983" d="M62 1026h106l342 -929l353 929h96l-412 -1078q-116 -315 -390 -365l-33 72q75 19 131.5 50.5t91.5 71.5t54 71.5t36 72.5l24 58zM301 1210v108h98v-108h-98zM637 1210v108h99v-108h-99z" />
<glyph unicode="&#x152;" horiz-adv-x="2038" d="M110 726q0 158 47 294.5t135.5 239.5t226 162t307.5 59q88 0 188.5 -31.5t178.5 -105.5v112h778v-99h-668v-561h629v-98h-631v-599h701v-99h-809v135q-57 -68 -154.5 -111t-212.5 -44q-147 -2 -267 36.5t-202.5 107t-138.5 163.5t-82 205t-26 234zM220 726 q0 -100 18 -190.5t62 -178t111 -150.5t173.5 -102t241.5 -39q116 0 211 45t156 127v1001q-59 67 -154 111.5t-213 44.5q-129 0 -234.5 -43t-173 -111.5t-113.5 -158.5t-65.5 -179t-19.5 -177z" />
<glyph unicode="&#x153;" horiz-adv-x="1946" d="M85 507q0 249 141 397t377 148q147 0 257.5 -76.5t156.5 -211.5q34 133 150 210.5t273 77.5q196 0 313 -134.5t117 -360.5v-50h-801v-29q0 -190 105 -303t282 -113q78 0 168 31.5t163 83.5l36 -69q-77 -59 -179.5 -94t-196.5 -35q-145 0 -263 75t-167 200 q-46 -126 -159 -200.5t-260 -74.5q-234 0 -373.5 143.5t-139.5 384.5zM195 503q0 -202 109.5 -322t293.5 -120q173 0 276.5 122.5t103.5 327.5q0 209 -102 334t-273 125q-186 0 -297 -127t-111 -340zM1069 578h719q0 32 -2 62q-15 151 -108 240.5t-238 89.5 q-166 0 -270 -107.5t-101 -284.5z" />
<glyph unicode="&#x178;" horiz-adv-x="1235" d="M80 1456h109l427 -773l434 773h105l-487 -862v-594h-108v591zM394 1640v108h98v-108h-98zM730 1640v108h99v-108h-99z" />
<glyph unicode="&#x2c6;" horiz-adv-x="699" d="M116 1215l206 272h57l201 -272h-56l-180 185l-178 -185h-50z" />
<glyph unicode="&#x2dc;" horiz-adv-x="573" d="M19 1250q0 71 31 107.5t88 36.5q50 0 161.5 -48.5t145.5 -48.5q27 0 34.5 19.5t7.5 66.5h66q0 -150 -101 -150q-48 0 -161.5 48.5t-147.5 48.5q-62 0 -62 -80h-62z" />
<glyph unicode="&#x2000;" horiz-adv-x="958" />
<glyph unicode="&#x2001;" horiz-adv-x="1917" />
<glyph unicode="&#x2002;" horiz-adv-x="958" />
<glyph unicode="&#x2003;" horiz-adv-x="1917" />
<glyph unicode="&#x2004;" horiz-adv-x="639" />
<glyph unicode="&#x2005;" horiz-adv-x="479" />
<glyph unicode="&#x2006;" horiz-adv-x="319" />
<glyph unicode="&#x2007;" horiz-adv-x="319" />
<glyph unicode="&#x2008;" horiz-adv-x="239" />
<glyph unicode="&#x2009;" horiz-adv-x="383" />
<glyph unicode="&#x200a;" horiz-adv-x="106" />
<glyph unicode="&#x2010;" horiz-adv-x="597" d="M67 527v73h459v-73h-459z" />
<glyph unicode="&#x2011;" horiz-adv-x="597" d="M67 527v73h459v-73h-459z" />
<glyph unicode="&#x2012;" horiz-adv-x="597" d="M67 527v73h459v-73h-459z" />
<glyph unicode="&#x2013;" horiz-adv-x="1067" d="M-13 515v89h1078v-89h-1078z" />
<glyph unicode="&#x2014;" horiz-adv-x="2171" d="M-42 515v89h2225v-89h-2225z" />
<glyph unicode="&#x2018;" horiz-adv-x="432" d="M103 904l80 552h67l-28 -552h-119z" />
<glyph unicode="&#x2019;" horiz-adv-x="395" d="M143 904l28 552h119l-80 -552h-67z" />
<glyph unicode="&#x201a;" horiz-adv-x="445" d="M177 158h110l-16 -527h-64z" />
<glyph unicode="&#x201c;" horiz-adv-x="1024" d="M212 904l80 552h67l-28 -552h-119zM551 904l80 552h67l-28 -552h-119z" />
<glyph unicode="&#x201d;" horiz-adv-x="1024" d="M212 904l28 552h119l-80 -552h-67zM551 904l28 552h119l-80 -552h-67z" />
<glyph unicode="&#x201e;" horiz-adv-x="1024" d="M284 158h110l-16 -527h-64zM585 158h110l-16 -527h-64z" />
<glyph unicode="&#x2022;" horiz-adv-x="991" d="M186 702q0 128 88 218t219 90q128 0 220 -91.5t92 -216.5q0 -127 -89.5 -212.5t-222.5 -85.5q-129 0 -218 87t-89 211z" />
<glyph unicode="&#x2026;" horiz-adv-x="1620" d="M192 -11v167h154l-1 -167h-153zM747 -11v167h153l-1 -167h-152zM1301 -11v167h155v-167h-155z" />
<glyph unicode="&#x202f;" horiz-adv-x="383" />
<glyph unicode="&#x2039;" horiz-adv-x="634" d="M138 541l267 367h114l-261 -366l253 -362h-110z" />
<glyph unicode="&#x203a;" horiz-adv-x="634" d="M115 181l261 366l-253 362h110l263 -361l-267 -367h-114z" />
<glyph unicode="&#x205f;" horiz-adv-x="479" />
<glyph unicode="&#x20ac;" horiz-adv-x="1334" d="M-63 838h181q-8 -66 -8 -137q0 -44 4 -87h-171l-5 -72h185q44 -262 226.5 -413t460.5 -151q253 0 463 137l-35 75q-189 -125 -428 -125q-229 0 -381.5 127.5t-194.5 349.5h579l7 72h-596q-4 42 -4 87q0 71 9 137h620l7 78h-613q51 224 204 351.5t377 127.5 q220 0 375 -121l44 68q-163 139 -419 139q-181 0 -325 -68t-238 -195t-130 -302h-189z" />
<glyph unicode="&#x2122;" horiz-adv-x="1869" d="M67 1430v52h642v-52h-291v-699h-71v699h-280zM825 731v751h108l300 -657l330 657h88v-751h-60v688l-339 -688h-43l-322 694v-694h-62z" />
<glyph unicode="&#x25fc;" horiz-adv-x="1030" d="M0 0v1030h1030v-1030h-1030z" />
<glyph unicode="&#xfb01;" horiz-adv-x="1174" d="M67 954h175v-954h112v954h499v-954h98v1026h-597v172q0 40 2.5 64t11.5 51t28 42t50 28t78.5 18.5t113.5 5.5l-6 90h-42q-109 0 -178 -19t-106.5 -63.5t-50.5 -102t-13 -148.5v-138h-175v-72zM853 1346v110h98v-110h-98z" />
<glyph unicode="&#xfb02;" horiz-adv-x="1229" d="M67 961v65h209v129q0 91 21.5 148t79.5 95.5t155.5 54t252.5 15.5h242v-1468h-113v1380h-161q-98 0 -161 -7t-105 -20.5t-63 -41t-28.5 -61.5t-7.5 -89v-135h260v-65h-260v-961h-112v961h-209z" />
<glyph unicode="&#xfb03;" horiz-adv-x="1696" d="M66 961v65h174v146q0 89 13 145.5t49 100t103.5 62.5t173.5 19h41l7 -83q-80 0 -134 -9.5t-85 -24.5t-46.5 -43.5t-19.5 -56t-4 -73.5v-183h504v146q0 89 13 145.5t49 100t103.5 62.5t173.5 19h41l7 -83q-80 0 -134 -9.5t-85 -24.5t-46.5 -43.5t-19.5 -56t-4 -73.5v-183 h554v-1026h-98v961h-456v-961h-98v961h-504v-961h-98v961h-174zM1396 1346v110h98v-110h-98z" />
<glyph unicode="&#xfb04;" horiz-adv-x="1714" d="M66 961v65h174v146q0 89 13 145.5t49 100t103.5 62.5t173.5 19h41l7 -83q-80 0 -134 -9.5t-85 -24.5t-46.5 -43.5t-19.5 -56t-4 -73.5v-183h263v-65h-263v-961h-98v961h-174zM572 961v65h209v129q0 91 21.5 148t79.5 95.5t155.5 54t252.5 15.5h242v-1468h-113v1380h-161 q-98 0 -161 -7t-105 -20.5t-63 -41t-28.5 -61.5t-7.5 -89v-135h260v-65h-260v-961h-112v961h-209z" />
</font>
</defs>
</svg>
