<svg xmlns="http://www.w3.org/2000/svg" viewBox="0 0 588.71 471.11"><defs><style>.cls-1,.cls-3{fill:#124572;}.cls-1{stroke:#fff;stroke-miterlimit:10;}.cls-2{fill:#fff;}</style></defs><title>logo</title><g id="Camada_2" data-name="Camada 2"><g id="Camada_1-2" data-name="Camada 1"><circle class="cls-1" cx="167.2" cy="80" r="46.5"/><circle class="cls-1" cx="408.2" cy="47" r="46.5"/><circle class="cls-1" cx="289.7" cy="93.5" r="58"/><circle class="cls-1" cx="166.7" cy="204.5" r="69"/><circle class="cls-1" cx="408.7" cy="172.5" r="69"/><circle class="cls-1" cx="302.7" cy="250.5" r="90"/><path class="cls-2" d="M196.8,172v65.4h-10l-36.07-44.29V237.4H138.69V172h10l36.06,44.28V172Z"/><path class="cls-2" d="M335.49,220,307,285.4H295L266.44,220h13.18l21.76,50.45,22-50.45Z"/><path class="cls-2" d="M383.18,200.48l4.2-9.43c5.24,4.2,13.55,7.19,21.59,7.19,10.18,0,14.48-3.64,14.48-8.5,0-14.11-38.87-4.86-38.87-29.15,0-10.56,8.41-19.53,26.35-19.53,7.85,0,16.07,2.06,21.77,5.8l-3.83,9.43a36.45,36.45,0,0,0-18-5.14c-10.09,0-14.2,3.93-14.2,8.88,0,13.92,38.78,4.86,38.78,28.87,0,10.46-8.51,19.43-26.44,19.43C398.78,208.33,388.6,205.16,383.18,200.48Z"/><path class="cls-3" d="M114.24,408.83c0-12.48-4.56-22.92-26.4-22.92-14.16,0-27.36,5.16-27.36,22.08v42.12H57.12V406.79c0-13.44-10.56-20.88-25.56-20.88-17,0-28.2,11-28.2,22.32v41.88H0v-66H3.36V399c3.6-10.32,16-16.32,28.44-16.32S56,387.59,59,399c4.32-13.44,17.16-16.32,29.52-16.32,22.8,0,29,11.16,29,24.6,0,41.64.12,42.72.6,42.84h-3.48C114.36,450.11,114.24,449.15,114.24,408.83Z"/><path class="cls-3" d="M213.48,441.47c-6,6.12-16.68,10-34,10-17.52,0-31.08-4.92-37.32-15.36a40,40,0,0,1-4.8-19.92c0-8.52,1.8-14.88,5.28-19.68,6-8.76,18.36-13.8,35.88-13.8,19,0,31.92,6.36,37.56,16.32,2.76,4.32,3.72,11.52,3.72,18.84H140.76a33.05,33.05,0,0,0,4.44,16.44c5.52,9.12,18.6,14,34.32,14,17,0,26.76-4.32,31.44-9a17.52,17.52,0,0,0,4.68-8.76h3.48A22.3,22.3,0,0,1,213.48,441.47ZM213,400.55c-5.28-8.76-16.08-14.64-34.56-14.64-16.2,0-27.72,4.92-33,12.48-3.12,4.2-4.68,9.48-4.68,16.44H216C216,409.07,215.16,403.91,213,400.55Z"/><path class="cls-3" d="M307.08,441.47c-6,6.12-16.68,10-34,10-17.52,0-31.08-4.92-37.32-15.36a40,40,0,0,1-4.8-19.92c0-8.52,1.8-14.88,5.28-19.68,6-8.76,18.36-13.8,35.88-13.8,19,0,31.92,6.36,37.56,16.32,2.76,4.32,3.72,11.52,3.72,18.84H234.36a33.05,33.05,0,0,0,4.44,16.44c5.52,9.12,18.6,14,34.32,14,17,0,26.76-4.32,31.44-9a17.52,17.52,0,0,0,4.68-8.76h3.48A22.3,22.3,0,0,1,307.08,441.47Zm-.48-40.92c-5.28-8.76-16.08-14.64-34.56-14.64-16.2,0-27.72,4.92-33,12.48-3.12,4.2-4.68,9.48-4.68,16.44H309.6C309.6,409.07,308.76,403.91,306.6,400.55Z"/><path class="cls-3" d="M337.44,387.11V432c0,13.08,4.92,16.2,17.16,16.2a98.27,98.27,0,0,0,14-1.08V450a77.19,77.19,0,0,1-14.4,1.32c-14.16,0-20.28-4.56-20.28-18.12V387.11H316.44v-3h17.28c.36-1.56.48-16.44.48-16.44l3.24-.12v16.56H369.6v3Z"/><path class="cls-3" d="M385.68,372.35V359.87h4.44v12.48Zm1.2,77.76c-.36-.36-.72-1.56-.72-3.72V384.11h3.48V446c0,2.28.24,3.72.6,4.08Z"/><path class="cls-3" d="M486.83,450.11h-3.36c-.36,0-.36-1-.36-42,0-15.6-10.32-22.2-29.39-22.2-16.56,0-33.72,6.36-33.72,23.4v40.8h-3.36v-66h3.24v15c4.68-12.48,20.28-16.44,34.2-16.44,23.63,0,32.39,9.48,32.39,24.36C486.47,446.75,486.59,449.87,486.83,450.11Z"/><path class="cls-3" d="M568.43,388.79c4-3.24,14.52-4.68,20.28-4.68v3.12c-3.24,0-15.12,1.32-18.12,3.6,2.52,2,6.12,7.8,6.48,13,.12,1.44.12,3.72.12,5.28-.48,11.28-10.44,22-36,22-11.4,0-21.84-2.88-25.44-5.64-2.88.6-5.16,2.52-5.16,5.76,0,3.72,4.32,6.84,33.11,7.08,33.6.36,41.64,4.68,41.64,15.6,0,12.12-12.84,17.28-42.47,17.28s-40.32-6.6-40.32-17.16c0-7.68,5.88-13.8,12.24-15.36-3.84-.6-7.2-3-7.2-7.32a7.55,7.55,0,0,1,5.88-7.44c-3.72-2.52-7-7.92-7.32-14.4v-4.56c.6-12.36,13-22.68,35-22.68C554.63,382.19,563.39,385.55,568.43,388.79Zm13.68,65.28c0-9-7.2-12.36-38.52-13-13.07-.24-20.51-.6-24.83-1.32-7,1.68-13.2,7-13.2,14.16,0,7.56,8.76,14.4,37.32,14.4C573.11,468.35,582.11,462.71,582.11,454.07ZM509.4,405.23a23.15,23.15,0,0,0,0,4.08c.36,10.56,10.44,19,31.8,19,23.75,0,32-9.72,32.63-19.56a28.82,28.82,0,0,0,0-4.56c-1-10-10.08-19.08-32.63-19.08C520.08,385.07,510.12,394.67,509.4,405.23Z"/></g></g></svg>