<svg xmlns="http://www.w3.org/2000/svg" viewBox="0 0 1680.7 382.77"><defs><style>.cls-1{fill:#063a69;fill-rule:evenodd;}</style></defs><title>nvstec-monocromatica-azul</title><g id="Camada_2" data-name="Camada 2"><g id="Camada_1-2" data-name="Camada 1"><path class="cls-1" d="M1371,297a32.16,32.16,0,0,1-31.61-32.18V116.76a31.79,31.79,0,0,1,31.9-31.9h110.33v40.39H1379.48V170.9h86V211h-86v45.65h102.13V297Z"/><path class="cls-1" d="M1484.48,299.9H1371a35.22,35.22,0,0,1-34.49-35.06V116.76A34.82,34.82,0,0,1,1371.28,82h113.2v46.15H1382.35V168h86v45.85h-86v39.89h102.13V299.9ZM1371.28,87.74a29.06,29.06,0,0,0-29,29V264.84a29.42,29.42,0,0,0,28.78,29.3h107.68V259.52H1376.59V208.11h86V173.78h-86V122.37h102.13V87.74Z"/><path class="cls-1" d="M638.52,264.54v.3A32,32,0,0,1,580,283a12.86,12.86,0,0,1-1.17-2.05l-83.4-132V297H455.05V116.47a32.14,32.14,0,0,1,60-15.22l83.11,132V84.86h40.38Z"/><path class="cls-1" d="M606.34,299.9a35,35,0,0,1-28.71-15.29l-.21-.35a10.7,10.7,0,0,1-1.18-2L498.31,158.9v141H452.16V116.76a35,35,0,0,1,65.37-17l77.73,123.44V82h46.15V264.54a35.18,35.18,0,0,1-35.07,35.36Zm-23.88-18.43a29.15,29.15,0,0,0,53.19-16.63V87.74H601V243.21L512.6,102.79a29.27,29.27,0,0,0-54.68,13.73V294.14h34.63V139l89,141a4,4,0,0,0,.39.67A8.06,8.06,0,0,1,582.46,281.47Z"/><path class="cls-1" d="M1676.79,99.2c-6.73,11.41-16.38,28.39-20.77,36-53.56-33.95-113.84,1.75-113.84,55.89,0,55.89,61.75,90.42,113.84,55.6,7,12,12.58,21.95,20.77,36.29-78.43,48.28-176.16-1.47-176.16-91.89C1500.63,102.71,1597.78,49.75,1676.79,99.2Z"/><path class="cls-1" d="M1612,304.66c-64.08,0-114.28-49.89-114.28-113.57s50.39-113.75,114.72-113.75a124.26,124.26,0,0,1,65.85,19.42l2.38,1.49-1.43,2.42c-4.84,8.21-11.21,19.31-16,27.72L1657,139.24l-2.54-1.61c-13.24-8.39-27.79-12.82-42.08-12.82-37.76,0-67.33,29.11-67.33,66.28,0,37.41,29.36,66.71,66.85,66.71,14.59,0,29.28-4.67,42.5-13.5l2.55-1.7,1.54,2.64c4.79,8.17,8.89,15.4,13.61,23.7l8.56,15-2.37,1.46A126.61,126.61,0,0,1,1612,304.66Zm.44-221.56c-61.1,0-109,47.43-109,108,0,67.48,55.18,107.81,108.52,107.81A120.55,120.55,0,0,0,1672.9,282l-5.8-10.17c-4.2-7.4-7.91-13.93-12-21.05-13.5,8.4-28.35,12.83-43.14,12.83-40.72,0-72.61-31.84-72.61-72.48,0-40.4,32.1-72,73.09-72,14.46,0,29.13,4.2,42.6,12.15l3.26-5.67c4.36-7.61,10-17.44,14.62-25.33A118.1,118.1,0,0,0,1612.47,83.1Z"/><path class="cls-1" d="M697.05,85.16l57.36,148.07v.29l.88,2.64.29.29V237l.29.3v.29l.29.88.3.58v.29h.29v.3l.88,2.34,3.22-8.49v-.29L818.2,84.86l42.73.3L787.48,276c0,.3-.3.59-.3,1.17l-.29.3A31.34,31.34,0,0,1,757.63,297a32.19,32.19,0,0,1-29.56-19.6v-.3c-.29-.29-.29-.87-.58-1.17L653.74,84.86Z"/><path class="cls-1" d="M757.63,299.9a35.24,35.24,0,0,1-32.2-21.33l-.23-.71a.9.9,0,0,1-.08-.21l-.1-.09-.22-.57L649.54,82l49.49.34L757.59,234l.57-1.78L816.23,82l48.88.34L790,277.44v1.19l-.72.47a34.13,34.13,0,0,1-31.68,20.8ZM731,276.8a29.1,29.1,0,0,0,26.68,17.34,28.4,28.4,0,0,0,26.59-17.79l.31-.64c0-.07.05-.14.07-.2l.19-.59L856.75,88l-36.58-.25-56.45,146-.18.76-5.93,15.63-3-7.92h-.77l-.28-2.47-.37-1-.52-.51-.15-1.16-1-3.3L695.07,88,658,87.77l72.1,186.8a5.37,5.37,0,0,1,.39.84l.51.52Z"/><path class="cls-1" d="M981.78,256.35h-110V297h134.61a32,32,0,0,0,31.89-31.89c0-13.17-7.9-21.37-15.51-30.73-32.77-39.51-64.08-70.82-93.64-108.86h109.15V85.16H903.36a32,32,0,0,0-31.9,31.89c0,10.54,5,17.56,11.41,25.17Z"/><path class="cls-1" d="M1006.37,299.9H868.88V253.47h106.6L880.7,144.11c-6.4-7.56-12.12-15.3-12.12-27.06a34.81,34.81,0,0,1,34.78-34.77h137.78v46.14H935c15.63,19.74,31.6,37.63,48.44,56.48,13.46,15.06,27.38,30.64,41.5,47.66l2.17,2.64c6.89,8.35,14,17,14,29.93a34.81,34.81,0,0,1-34.77,34.77Zm-131.74-5.76h131.74a29,29,0,0,0,29-29c0-10.89-5.88-18-12.68-26.26l-2.18-2.65c-14-16.92-27.92-32.46-41.34-47.49-18.22-20.39-35.43-39.65-52.34-61.42l-3.61-4.65h112.15V88h-132a29.05,29.05,0,0,0-29,29c0,9.83,4.86,16.37,10.73,23.31l103,118.87H874.63Z"/><polygon class="cls-1" points="1199.51 297.02 1239.89 297.02 1239.89 125.25 1316.56 125.25 1316.56 84.86 1122.55 84.86 1122.55 125.25 1199.51 125.25 1199.51 297.02"/><path class="cls-1" d="M1242.77,299.9h-46.15V128.13h-77V82h199.78v46.15h-76.67V299.9Zm-40.39-5.76H1237V122.37h76.67V87.74H1125.42v34.63h77Z"/><path class="cls-1" d="M231.18,327.75l45.94-26.34c7.91-4.68,26.93-2.63,39.8-4.1,9.07-.58,16.68-6.72,19-14.62a23.05,23.05,0,0,0-2.34-17.85c-5.56-11.42-15.8-25.76-15.8-34.24V152.46c0-8.78,10.83-24,16.68-35.7,2.34-5.27,3.51-11.7.58-18.73a21,21,0,0,0-19-12.58c-12.87-1.17-31,.58-38.92-3.81L231.18,55v2.92L276,83.69c5.86,3.22,11.12,12.88,16.68,22.24-5.56,9.07-11.12,18.73-16.68,22.24l-37.16,19.9a25.78,25.78,0,0,1-7.61,3.22v10c3.22-4.1,6.44-7.31,9.95-9.36l36-21.66C283,127,293.81,127,304.63,127c5.27,9.07,10.83,18.73,10.83,25.46V230.6c0,6.43-5.56,16.09-10.83,25.45-10.53-.29-21.65-.29-27.21-3.51L241.13,230.6a35.05,35.05,0,0,1-9.95-9.08v9.95a32,32,0,0,1,7.9,3.22L276,254.88c5.86,3.22,11.12,12.88,16.68,21.95-5.56,9.07-11.12,19-16.68,22.24l-44.77,26.05v2.63ZM73.45,309V306.1l55.31,32.18c5.85,3.22,17,3.22,27.8,3.22,5-9.07,10.54-18.72,10.54-25.45l-.89-41.85c0-11.71-9.94-29-19.31-45.36-18.73.29-38.63,0-48.87,5.85L73.45,248.15v-3.8L96,230.89c9.94-5.85,19.89-23.12,29.55-39.21-10-16.1-19.9-33.66-30.14-39.8l-22-13.46V134.9l24.29,13.17c10.24,6.15,30.14,5.86,49.16,6.15,9.37-16.68,19.31-33.65,19.31-45.36l.89-42.14c0-6.73-5.57-16.09-10.83-25.46-10.54,0-21.66,0-27.51,3.22L73.45,76.38V73.74l54.14-31.31c7.61-4.68,14.63-20.19,21.65-30.73A22.57,22.57,0,0,1,168.56,0,21.88,21.88,0,0,1,187,10.83c7.32,10.82,14.34,26.92,22.24,31.31l22,12.88v2.92L208.06,44.48c-5.85-3.22-16.68-3.22-27.5-3.51-5,9.36-10.83,19-10.83,25.75l.87,42.14c0,11.71,10,28.68,19.32,45.36,14.93-.29,30.43-.29,41.26-2.93v10c-6.73,7.9-13.17,19.31-19.61,30.14,6.44,10.54,12.88,22,19.61,30.14v9.95c-10.83-2.63-26.33-2.63-41-2.92-9.36,16.68-19.61,33.65-19.61,45.65l-.87,42.14c0,6.44,5.85,16.09,10.83,25.46,10.53-.3,21.65,0,27.21-3.52l23.41-13.16v2.63l-22,12.88c-7.6,4.39-14.33,19.6-21.65,30.43a22.46,22.46,0,0,1-19.31,11.71,21.36,21.36,0,0,1-18.44-10.83c-7.32-10.54-14.63-26.92-22.24-31.61L73.45,309ZM19.31,297.61c12.88,1.17,32.49-.88,40.38,3.51L73.45,309V306.1l-12.58-7c-5.56-3.22-11.12-12.87-16.39-22.24,5.27-9.07,10.83-18.73,16.39-21.95l12.58-6.73v-3.8l-13.76,8.19c-5.55,3.51-17,3.22-27.5,3.51-5.27-9.36-10.83-19-10.83-25.45V152.46c0-6.73,5.56-16.39,10.83-25.75,10.53.29,21.65.29,27.5,3.51l13.76,8.2V134.9l-12.58-6.73c-5.56-3.51-11.12-13.17-16.68-22.53,5.56-9.07,10.83-18.43,16.68-22l12.58-7.31V73.74l-14,7.9C51.8,86,33.94,84.28,21.07,85.45A21.41,21.41,0,0,0,2.63,96.28a22,22,0,0,0,.59,21.65c5.56,11.71,15.51,25.46,15.51,34.53V230.6c0,8.77-10.54,23.41-16.1,35.41A20,20,0,0,0,0,275.66v.59a22.76,22.76,0,0,0,3.22,11.41A22.08,22.08,0,0,0,19.31,297.61Z"/></g></g></svg>